<svg xmlns="http://www.w3.org/2000/svg" viewBox="0 0 400 400"><path d="M 281.63 109.34 L 285.01 110.42 L 288.37 111.63 L 291.72 112.96 L 295.04 114.42 L 298.34 116.01 L 301.62 117.71 L 304.86 119.54 L 308.06 121.49 L 311.22 123.56 L 314.33 125.75 L 317.39 128.06 L 320.40 130.49 L 323.35 133.03 L 326.23 135.68 L 329.05 138.45 L 331.79 141.32 L 334.46 144.30 L 337.05 147.39 L 339.56 150.58 L 341.98 153.87 L 343.01 157.64 L 343.94 161.43 L 344.76 165.25 L 345.49 169.08 L 346.11 172.92 L 346.64 176.77 L 347.06 180.64 L 347.38 184.51 L 347.60 188.38 L 347.72 192.26 L 347.73 196.13 L 347.64 200.00 L 347.46 203.86 L 347.17 207.71 L 346.78 211.55 L 346.29 215.38 L 345.70 219.18 L 345.01 222.97 L 344.22 226.73 L 343.34 230.47 L 342.36 234.18 L 341.28 237.86 L 340.11 241.50 L 338.84 245.11 L 337.48 248.69 L 336.03 252.22 L 334.49 255.71 L 332.86 259.15 L 331.14 262.55 L 329.34 265.90 L 327.44 269.20 L 325.47 272.44 L 323.41 275.63 L 321.27 278.75 L 319.05 281.82 L 316.76 284.83 L 314.39 287.77 L 311.94 290.65 L 309.42 293.46 L 306.84 296.20 L 304.18 298.86 L 301.46 301.46 L 298.67 303.98 L 295.82 306.42 L 292.91 308.79 L 289.94 311.07 L 286.92 313.28 L 283.84 315.40 L 280.71 317.44 L 277.53 319.39 L 274.31 321.26 L 271.04 323.04 L 267.73 324.73 L 264.37 326.34 L 260.98 327.85 L 257.56 329.28 L 254.10 330.61 L 250.61 331.85 L 247.10 332.99 L 243.55 334.05 L 239.99 335.00 L 236.41 335.87 L 232.80 336.63 L 229.19 337.31 L 225.56 337.88 L 221.91 338.36 L 218.27 338.75 L 214.61 339.04 L 210.96 339.23 L 207.30 339.33 L 203.65 339.33 L 200.00 339.23 L 196.36 339.04 L 192.73 338.75 L 189.11 338.37 L 185.51 337.89 L 181.92 337.33 L 178.35 336.66 L 174.81 335.91 L 171.29 335.06 L 167.80 334.12 L 164.34 333.09 L 160.91 331.97 L 157.51 330.77 L 154.15 329.47 L 150.83 328.09 L 147.55 326.63 L 144.31 325.08 L 141.12 323.45 L 137.97 321.73 L 134.88 319.94 L 131.84 318.06 L 128.84 316.11 L 125.91 314.09 L 123.03 311.99 L 120.21 309.82 L 117.46 307.57 L 114.76 305.26 L 112.13 302.88 L 109.57 300.44 L 107.07 297.93 L 104.64 295.36 L 102.29 292.73 L 100.00 290.04 L 97.79 287.29 L 95.66 284.49 L 93.60 281.64 L 91.62 278.74 L 89.72 275.79 L 87.90 272.80 L 86.16 269.76 L 84.51 266.68 L 82.93 263.56 L 81.44 260.41 L 80.04 257.22 L 78.72 254.00 L 77.49 250.75 L 76.34 247.47 L 75.29 244.16 L 74.32 240.84 L 73.44 237.49 L 72.65 234.12 L 71.95 230.74 L 71.33 227.35 L 70.81 223.94 L 70.38 220.53 L 70.04 217.11 L 69.79 213.69 L 69.63 210.26 L 69.56 206.84 L 69.58 203.42 L 69.70 200.00 L 69.90 196.59 L 70.19 193.20 L 70.56 189.81 L 71.03 186.44 L 71.59 183.09 L 72.23 179.76 L 72.96 176.45 L 73.77 173.17 L 74.67 169.91 L 75.66 166.68 L 76.72 163.48 L 77.87 160.32 L 79.11 157.19 L 80.42 154.10 L 81.81 151.04 L 83.28 148.03 L 84.83 145.07 L 86.45 142.14 L 88.15 139.27 L 89.92 136.44 L 91.76 133.67 L 93.67 130.95 L 95.65 128.28 L 97.70 125.67 L 99.81 123.12 L 101.99 120.63 L 104.23 118.20 L 106.53 115.84 L 108.89 113.54 L 111.30 111.30 L 113.77 109.14 L 116.30 107.04 L 118.87 105.01 L 121.50 103.06 L 124.17 101.18 L 126.89 99.37 L 129.65 97.64 L 132.45 95.98 L 135.29 94.41 L 138.17 92.91 L 141.09 91.49 L 144.03 90.16 L 147.01 88.91 L 150.02 87.74 L 153.05 86.65 L 156.11 85.66 L 159.19 84.76 L 162.30 83.97 L 162.30 83.97 L 159.36 85.24 L 156.45 86.55 L 153.57 87.92 L 150.74 89.36 L 147.94 90.86 L 145.19 92.44 L 142.49 94.07 L 139.83 95.78 L 137.22 97.55 L 134.66 99.38 L 132.15 101.27 L 129.69 103.23 L 127.29 105.24 L 124.95 107.32 L 122.66 109.45 L 120.43 111.63 L 118.27 113.87 L 116.16 116.16 L 114.12 118.50 L 112.14 120.89 L 110.23 123.33 L 108.39 125.81 L 106.61 128.34 L 104.90 130.91 L 103.26 133.51 L 101.69 136.16 L 100.20 138.84 L 98.77 141.56 L 97.42 144.30 L 96.14 147.08 L 94.94 149.89 L 93.81 152.72 L 92.76 155.58 L 91.79 158.46 L 90.89 161.36 L 90.07 164.28 L 89.32 167.22 L 88.66 170.17 L 88.07 173.13 L 87.56 176.10 L 87.13 179.08 L 86.78 182.07 L 86.50 185.06 L 86.31 188.05 L 86.19 191.04 L 86.15 194.03 L 86.19 197.02 L 86.30 200.00 L 86.50 202.97 L 86.77 205.93 L 87.12 208.88 L 87.54 211.82 L 88.05 214.74 L 88.62 217.64 L 89.27 220.52 L 90.00 223.38 L 90.80 226.22 L 91.67 229.03 L 92.61 231.81 L 93.63 234.56 L 94.71 237.29 L 95.86 239.97 L 97.09 242.63 L 98.38 245.25 L 99.73 247.83 L 101.15 250.37 L 102.64 252.86 L 104.18 255.32 L 105.79 257.73 L 107.46 260.09 L 109.19 262.41 L 110.98 264.68 L 112.82 266.90 L 114.72 269.06 L 116.67 271.17 L 118.67 273.23 L 120.72 275.23 L 122.82 277.18 L 124.97 279.06 L 127.17 280.89 L 129.40 282.66 L 131.69 284.36 L 134.01 286.00 L 136.37 287.58 L 138.77 289.10 L 141.20 290.55 L 143.67 291.93 L 146.16 293.25 L 148.69 294.49 L 151.25 295.67 L 153.84 296.79 L 156.44 297.83 L 159.08 298.80 L 161.73 299.70 L 164.40 300.53 L 167.09 301.29 L 169.79 301.98 L 172.51 302.59 L 175.24 303.14 L 177.98 303.61 L 180.72 304.01 L 183.48 304.33 L 186.23 304.59 L 188.99 304.77 L 191.75 304.88 L 194.50 304.91 L 197.25 304.88 L 200.00 304.77 L 202.74 304.59 L 205.47 304.34 L 208.19 304.02 L 210.89 303.63 L 213.58 303.16 L 216.26 302.63 L 218.91 302.03 L 221.55 301.36 L 224.16 300.62 L 226.75 299.82 L 229.31 298.95 L 231.85 298.01 L 234.35 297.01 L 236.83 295.95 L 239.28 294.82 L 241.69 293.63 L 244.06 292.38 L 246.40 291.07 L 248.70 289.70 L 250.96 288.27 L 253.18 286.78 L 255.36 285.24 L 257.49 283.65 L 259.58 282.00 L 261.62 280.30 L 263.61 278.55 L 265.55 276.75 L 267.45 274.91 L 269.29 273.01 L 271.08 271.08 L 272.81 269.10 L 274.49 267.07 L 276.11 265.01 L 277.68 262.91 L 279.19 260.77 L 280.64 258.59 L 282.03 256.38 L 283.36 254.14 L 284.63 251.86 L 285.84 249.56 L 286.99 247.23 L 288.07 244.87 L 289.09 242.49 L 290.04 240.09 L 290.93 237.67 L 291.76 235.22 L 292.52 232.76 L 293.21 230.29 L 293.84 227.80 L 294.40 225.30 L 294.90 222.78 L 295.33 220.26 L 295.69 217.74 L 295.99 215.20 L 296.21 212.67 L 296.38 210.13 L 296.47 207.59 L 296.50 205.06 L 296.46 202.53 L 296.36 200.00 L 296.19 197.48 L 295.95 194.97 L 295.65 192.47 L 295.28 189.99 L 294.85 187.51 L 294.36 185.06 L 293.80 182.62 L 293.18 180.19 L 292.50 177.79 L 291.75 175.42 L 290.94 173.06 L 290.08 170.73 L 290.45 167.97 L 290.74 165.17 L 290.96 162.32 L 291.11 159.43 L 291.18 156.51 L 291.17 153.54 L 291.08 150.55 L 290.91 147.51 L 290.65 144.45 L 290.31 141.36 L 289.87 138.23 L 289.34 135.09 L 288.72 131.92 L 288.01 128.73 L 287.19 125.53 L 286.29 122.31 L 285.28 119.08 L 284.16 115.84 L 282.95 112.59 L 281.63 109.34 Z" fill="#ffffff"/><path d="M 304.36 139.75 L 305.81 141.11 L 307.25 142.50 L 308.66 143.92 L 310.04 145.37 L 311.41 146.86 L 312.75 148.38 L 314.06 149.93 L 315.35 151.51 L 316.61 153.12 L 317.85 154.76 L 319.05 156.43 L 320.23 158.13 L 321.38 159.86 L 322.49 161.61 L 323.58 163.39 L 324.64 165.20 L 325.66 167.03 L 326.66 168.89 L 327.62 170.77 L 328.54 172.68 L 328.90 174.71 L 329.23 176.75 L 329.53 178.79 L 329.79 180.83 L 330.02 182.88 L 330.22 184.93 L 330.38 186.99 L 330.52 189.04 L 330.62 191.10 L 330.69 193.15 L 330.72 195.21 L 330.73 197.26 L 330.70 199.32 L 330.64 201.37 L 330.55 203.42 L 330.42 205.47 L 330.27 207.51 L 330.08 209.55 L 329.86 211.59 L 329.60 213.62 L 329.32 215.65 L 329.00 217.67 L 328.65 219.69 L 328.27 221.70 L 327.86 223.70 L 327.42 225.69 L 326.95 227.68 L 326.44 229.66 L 325.91 231.63 L 325.34 233.59 L 324.74 235.53 L 324.12 237.47 L 323.46 239.40 L 322.77 241.32 L 322.06 243.22 L 321.31 245.12 L 320.54 246.99 L 319.73 248.86 L 318.90 250.71 L 318.03 252.55 L 317.14 254.38 L 316.22 256.19 L 315.28 257.98 L 314.30 259.76 L 313.30 261.52 L 312.27 263.26 L 311.22 264.99 L 310.13 266.70 L 309.02 268.39 L 307.89 270.06 L 306.73 271.72 L 305.54 273.35 L 304.33 274.97 L 303.10 276.57 L 301.84 278.14 L 300.55 279.70 L 299.24 281.23 L 297.91 282.74 L 296.56 284.23 L 295.18 285.70 L 293.78 287.15 L 292.36 288.57 L 290.92 289.97 L 289.45 291.35 L 287.97 292.70 L 286.46 294.03 L 284.94 295.33 L 283.39 296.61 L 281.83 297.86 L 280.24 299.09 L 278.64 300.29 L 277.02 301.47 L 275.38 302.62 L 273.73 303.75 L 272.06 304.84 L 270.37 305.92 L 268.67 306.96 L 266.95 307.98 L 265.21 308.96 L 263.47 309.93 L 261.70 310.86 L 259.93 311.76 L 258.14 312.64 L 256.33 313.49 L 254.52 314.30 L 252.69 315.09 L 250.86 315.85 L 249.01 316.58 L 247.15 317.29 L 245.28 317.96 L 243.40 318.60 L 241.51 319.21 L 239.62 319.79 L 237.71 320.34 L 235.80 320.86 L 233.88 321.36 L 231.96 321.82 L 230.03 322.25 L 228.09 322.64 L 226.15 323.01 L 224.20 323.35 L 222.25 323.66 L 220.29 323.93 L 218.34 324.18 L 216.38 324.39 L 214.41 324.57 L 212.45 324.72 L 210.48 324.85 L 208.52 324.93 L 206.55 324.99 L 204.58 325.02 L 202.62 325.02 L 200.65 324.98 L 198.69 324.92 L 196.73 324.82 L 194.77 324.69 L 192.82 324.54 L 190.87 324.35 L 188.92 324.13 L 186.98 323.88 L 185.04 323.60 L 183.11 323.29 L 181.19 322.95 L 179.27 322.58 L 177.36 322.17 L 175.45 321.74 L 173.56 321.28 L 171.67 320.79 L 169.79 320.27 L 167.92 319.72 L 166.06 319.14 L 164.21 318.54 L 162.37 317.90 L 160.55 317.24 L 158.73 316.54 L 156.93 315.82 L 155.14 315.07 L 153.36 314.29 L 151.59 313.49 L 149.84 312.66 L 148.10 311.80 L 146.38 310.91 L 144.68 310.00 L 142.98 309.06 L 141.31 308.09 L 139.65 307.10 L 138.01 306.09 L 136.38 305.04 L 134.78 303.98 L 133.19 302.88 L 131.61 301.77 L 130.06 300.63 L 128.53 299.46 L 127.01 298.28 L 125.52 297.06 L 124.05 295.83 L 122.59 294.57 L 121.16 293.29 L 119.75 291.99 L 118.36 290.67 L 116.99 289.33 L 115.65 287.96 L 114.32 286.58 L 113.02 285.17 L 111.75 283.75 L 110.49 282.31 L 109.26 280.84 L 108.06 279.36 L 106.88 277.86 L 105.72 276.34 L 104.59 274.81 L 103.49 273.25 L 102.41 271.69 L 101.36 270.10 L 100.34 268.50 L 99.34 266.88 L 98.37 265.25 L 97.43 263.60 L 96.52 261.93 L 95.64 260.25 L 95.64 260.25 L 96.69 261.83 L 97.75 263.40 L 98.83 264.95 L 99.93 266.49 L 101.05 268.01 L 102.19 269.51 L 103.36 270.99 L 104.55 272.45 L 105.75 273.90 L 106.98 275.32 L 108.23 276.73 L 109.50 278.11 L 110.80 279.48 L 112.11 280.82 L 113.44 282.14 L 114.79 283.44 L 116.16 284.72 L 117.55 285.98 L 118.96 287.21 L 120.38 288.43 L 121.82 289.61 L 123.28 290.78 L 124.76 291.92 L 126.26 293.04 L 127.77 294.13 L 129.30 295.20 L 130.84 296.25 L 132.40 297.27 L 133.97 298.26 L 135.56 299.23 L 137.16 300.18 L 138.77 301.10 L 140.40 301.99 L 142.04 302.86 L 143.70 303.70 L 145.36 304.52 L 147.04 305.30 L 148.73 306.06 L 150.43 306.80 L 152.13 307.51 L 153.85 308.19 L 155.58 308.84 L 157.32 309.47 L 159.07 310.06 L 160.82 310.63 L 162.59 311.18 L 164.35 311.69 L 166.13 312.18 L 167.91 312.64 L 169.70 313.07 L 171.50 313.47 L 173.30 313.84 L 175.10 314.19 L 176.91 314.50 L 178.72 314.79 L 180.54 315.05 L 182.36 315.28 L 184.18 315.48 L 186.00 315.66 L 187.83 315.80 L 189.65 315.92 L 191.48 316.01 L 193.31 316.06 L 195.13 316.09 L 196.96 316.10 L 198.78 316.07 L 200.61 316.01 L 202.43 315.93 L 204.25 315.82 L 206.06 315.68 L 207.87 315.51 L 209.68 315.31 L 211.49 315.08 L 213.29 314.83 L 215.08 314.55 L 216.87 314.24 L 218.65 313.90 L 220.43 313.53 L 222.20 313.14 L 223.96 312.72 L 225.71 312.27 L 227.46 311.80 L 229.20 311.30 L 230.93 310.77 L 232.65 310.21 L 234.36 309.63 L 236.05 309.02 L 237.74 308.38 L 239.42 307.72 L 241.09 307.04 L 242.74 306.32 L 244.38 305.58 L 246.01 304.82 L 247.63 304.03 L 249.23 303.22 L 250.82 302.38 L 252.40 301.52 L 253.96 300.63 L 255.50 299.72 L 257.03 298.79 L 258.55 297.83 L 260.05 296.85 L 261.53 295.84 L 263.00 294.82 L 264.45 293.77 L 265.88 292.70 L 267.29 291.61 L 268.69 290.49 L 270.06 289.36 L 271.42 288.20 L 272.76 287.02 L 274.08 285.83 L 275.38 284.61 L 276.67 283.37 L 277.93 282.12 L 279.17 280.84 L 280.39 279.55 L 281.59 278.24 L 282.76 276.91 L 283.92 275.56 L 285.05 274.20 L 286.16 272.81 L 287.25 271.42 L 288.32 270.00 L 289.36 268.57 L 290.38 267.12 L 291.38 265.66 L 292.35 264.19 L 293.30 262.70 L 294.23 261.19 L 295.13 259.68 L 296.01 258.15 L 296.86 256.60 L 297.69 255.05 L 298.49 253.48 L 299.27 251.90 L 300.02 250.31 L 300.75 248.71 L 301.45 247.09 L 302.13 245.47 L 302.78 243.84 L 303.40 242.20 L 304.00 240.55 L 304.57 238.89 L 305.12 237.22 L 305.64 235.55 L 306.13 233.87 L 306.60 232.18 L 307.03 230.49 L 307.45 228.79 L 307.83 227.09 L 308.19 225.38 L 308.52 223.66 L 308.83 221.94 L 309.10 220.22 L 309.35 218.50 L 309.57 216.77 L 309.77 215.04 L 309.94 213.30 L 310.08 211.57 L 310.19 209.83 L 310.28 208.10 L 310.33 206.36 L 310.37 204.63 L 310.37 202.89 L 310.35 201.16 L 310.30 199.42 L 310.22 197.69 L 310.11 195.96 L 309.98 194.24 L 309.82 192.51 L 309.64 190.79 L 309.42 189.08 L 309.19 187.37 L 308.92 185.66 L 308.63 183.96 L 308.31 182.26 L 307.96 180.57 L 307.59 178.89 L 307.19 177.22 L 307.30 175.42 L 307.39 173.62 L 307.45 171.81 L 307.48 169.99 L 307.49 168.16 L 307.48 166.32 L 307.43 164.47 L 307.37 162.61 L 307.27 160.74 L 307.15 158.87 L 307.00 156.99 L 306.82 155.10 L 306.61 153.20 L 306.38 151.30 L 306.11 149.39 L 305.82 147.47 L 305.50 145.55 L 305.15 143.62 L 304.77 141.69 L 304.36 139.75 Z" fill="#ffffff" opacity="0.5"/><path d="M 234.65 75.00 Q 262.27 76.75 277.99 84.37 A 16.47 16.47 0 1 1 259.57 111.68 Q 246.62 99.96 234.65 75.00 Z" fill="#ffffff"/><path d="M 210.40 77.20 Q 228.82 73.16 240.55 75.20 A 11.22 11.22 0 1 1 233.61 96.55 Q 222.93 91.30 210.40 77.20 Z" fill="#ffffff"/><path d="M 184.34 83.71 Q 194.70 77.87 202.15 76.94 A 7.08 7.08 0 1 1 201.90 91.09 Q 194.49 89.90 184.34 83.71 Z" fill="#ffffff"/><g transform="translate(135.38,195.08)"><path d="M494 142H203L153 0H34L283 696H415L664 0H544ZM462 235 349 558 235 235Z" transform="translate(0.00,0.00) scale(0.04727,-0.04727)" fill="#ffffff"/><path d="M488 471V551H603V-9Q603 -85 571.0 -144.5Q539 -204 478.5 -238.0Q418 -272 334 -272Q222 -272 148.0 -219.5Q74 -167 64 -77H177Q190 -120 232.5 -146.5Q275 -173 334 -173Q403 -173 445.5 -131.0Q488 -89 488 -9V83Q459 44 409.5 17.5Q360 -9 297 -9Q225 -9 165.5 27.5Q106 64 71.5 129.5Q37 195 37 278Q37 361 71.5 425.0Q106 489 165.5 524.5Q225 560 297 560Q361 560 410.5 534.5Q460 509 488 471ZM321 461Q277 461 239.0 439.5Q201 418 177.5 376.5Q154 335 154 278Q154 221 177.5 178.0Q201 135 239.5 112.5Q278 90 321 90Q365 90 403.0 112.0Q441 134 464.5 176.5Q488 219 488 276Q488 333 464.5 375.0Q441 417 403.0 439.0Q365 461 321 461Z" transform="translate(33.45,0.00) scale(0.04727,-0.04727)" fill="#ffffff"/><path d="M574 551V0H460V65Q433 31 389.5 11.5Q346 -8 297 -8Q232 -8 180.5 19.0Q129 46 99.5 99.0Q70 152 70 227V551H183V244Q183 170 220.0 130.5Q257 91 321 91Q385 91 422.5 130.5Q460 170 460 244V551Z" transform="translate(66.00,0.00) scale(0.04727,-0.04727)" fill="#ffffff"/><path d="M297 560Q362 560 410.5 534.5Q459 509 488 471V551H603V0H488V82Q459 43 409.0 17.0Q359 -9 295 -9Q224 -9 165.0 27.5Q106 64 71.5 129.5Q37 195 37 278Q37 361 71.5 425.0Q106 489 165.5 524.5Q225 560 297 560ZM321 461Q277 461 239.0 439.5Q201 418 177.5 376.5Q154 335 154 278Q154 221 177.5 178.0Q201 135 239.5 112.5Q278 90 321 90Q365 90 403.0 112.0Q441 134 464.5 176.5Q488 219 488 276Q488 333 464.5 375.0Q441 417 403.0 439.0Q365 461 321 461Z" transform="translate(97.18,0.00) scale(0.04727,-0.04727)" fill="#ffffff"/></g><g transform="translate(111.37,242.35)"><path d="M42 210H224Q228 171 251.0 150.5Q274 130 311 130Q349 130 371.0 147.5Q393 165 393 196Q393 222 375.5 239.0Q358 256 332.5 267.0Q307 278 260 292Q192 313 149.0 334.0Q106 355 75.0 396.0Q44 437 44 503Q44 601 115.0 656.5Q186 712 300 712Q416 712 487.0 656.5Q558 601 563 502H378Q376 536 353.0 555.5Q330 575 294 575Q263 575 244.0 558.5Q225 542 225 511Q225 477 257.0 458.0Q289 439 357 417Q425 394 467.5 373.0Q510 352 541.0 312.0Q572 272 572 209Q572 149 541.5 100.0Q511 51 453.0 22.0Q395 -7 316 -7Q239 -7 178.0 18.0Q117 43 80.5 92.0Q44 141 42 210Z" transform="translate(0.00,0.00) scale(0.04924,-0.04924)" fill="#ffffff"/><path d="M46 708Q46 748 74.5 774.5Q103 801 148 801Q192 801 220.5 774.5Q249 748 249 708Q249 669 220.5 642.5Q192 616 148 616Q103 616 74.5 642.5Q46 669 46 708ZM233 558V0H62V558Z" transform="translate(30.79,0.00) scale(0.04924,-0.04924)" fill="#ffffff"/><path d="M32 183H201Q204 154 228.0 136.0Q252 118 287 118Q319 118 336.5 130.5Q354 143 354 163Q354 187 329.0 198.5Q304 210 248 224Q188 238 148.0 253.5Q108 269 79.0 302.5Q50 336 50 393Q50 441 76.5 480.5Q103 520 154.5 543.0Q206 566 277 566Q382 566 442.5 514.0Q503 462 512 376H354Q350 405 328.5 422.0Q307 439 272 439Q242 439 226.0 427.5Q210 416 210 396Q210 372 235.5 360.0Q261 348 315 336Q377 320 416.0 304.5Q455 289 484.5 254.5Q514 220 515 162Q515 113 487.5 74.5Q460 36 408.5 14.0Q357 -8 289 -8Q216 -8 159.0 17.0Q102 42 69.0 85.5Q36 129 32 183Z" transform="translate(45.81,0.00) scale(0.04924,-0.04924)" fill="#ffffff"/><path d="M373 145V0H286Q193 0 141.0 45.5Q89 91 89 194V416H21V558H89V694H260V558H372V416H260V192Q260 167 272.0 156.0Q284 145 312 145Z" transform="translate(73.79,0.00) scale(0.04924,-0.04924)" fill="#ffffff"/><path d="M585 238H198Q202 186 231.5 158.5Q261 131 304 131Q368 131 393 185H575Q561 130 524.5 86.0Q488 42 433.0 17.0Q378 -8 310 -8Q228 -8 164.0 27.0Q100 62 64.0 127.0Q28 192 28 279Q28 366 63.5 431.0Q99 496 163.0 531.0Q227 566 310 566Q391 566 454.0 532.0Q517 498 552.5 435.0Q588 372 588 288Q588 264 585 238ZM413 333Q413 377 383.0 403.0Q353 429 308 429Q265 429 235.5 404.0Q206 379 199 333Z" transform="translate(94.28,0.00) scale(0.04924,-0.04924)" fill="#ffffff"/><path d="M1001 326V0H831V303Q831 357 802.5 386.5Q774 416 724 416Q674 416 645.5 386.5Q617 357 617 303V0H447V303Q447 357 418.5 386.5Q390 416 340 416Q290 416 261.5 386.5Q233 357 233 303V0H62V558H233V488Q259 523 301.0 543.5Q343 564 396 564Q459 564 508.5 537.0Q558 510 586 460Q615 506 665.0 535.0Q715 564 774 564Q878 564 939.5 501.0Q1001 438 1001 326Z" transform="translate(125.12,0.00) scale(0.04924,-0.04924)" fill="#ffffff"/></g></svg>