<svg xmlns="http://www.w3.org/2000/svg" viewBox="0 0 526 160"><defs>
<linearGradient id="g" x1="0.15" y1="0.05" x2="0.8" y2="0.95">
<stop offset="0" stop-color="#5CC8ED"/><stop offset="0.5" stop-color="#218FCF"/><stop offset="1" stop-color="#0E4078"/>
</linearGradient></defs><path d="M 55.51 133.58 L 54.52 133.64 L 53.52 133.67 L 52.52 133.69 L 51.52 133.68 L 50.52 133.64 L 49.51 133.57 L 48.52 133.48 L 47.52 133.35 L 46.54 133.20 L 45.56 133.01 L 44.59 132.79 L 43.63 132.54 L 42.68 132.26 L 41.75 131.94 L 40.83 131.59 L 39.93 131.20 L 39.04 130.79 L 38.18 130.34 L 37.34 129.85 L 36.52 129.34 L 35.73 128.79 L 34.96 128.21 L 34.22 127.60 L 33.50 126.96 L 32.81 126.29 L 32.16 125.59 L 31.53 124.87 L 30.93 124.12 L 30.35 123.36 L 29.79 122.58 L 29.23 121.81 L 28.69 121.02 L 28.16 120.22 L 27.64 119.42 L 27.13 118.61 L 26.63 117.80 L 26.14 116.98 L 25.67 116.15 L 25.21 115.32 L 24.76 114.48 L 24.32 113.64 L 23.89 112.79 L 23.48 111.93 L 23.07 111.07 L 22.69 110.20 L 22.31 109.33 L 21.94 108.46 L 21.59 107.58 L 21.25 106.69 L 20.92 105.81 L 20.61 104.91 L 20.31 104.02 L 20.02 103.12 L 19.74 102.21 L 19.48 101.31 L 19.22 100.40 L 18.99 99.49 L 18.76 98.57 L 18.55 97.65 L 18.35 96.73 L 18.16 95.81 L 17.99 94.89 L 17.83 93.96 L 17.68 93.04 L 17.55 92.11 L 17.42 91.18 L 17.32 90.25 L 17.22 89.31 L 17.14 88.38 L 17.07 87.45 L 17.01 86.51 L 16.97 85.58 L 16.94 84.65 L 16.92 83.71 L 16.92 82.78 L 16.93 81.85 L 16.95 80.92 L 16.99 79.99 L 17.03 79.06 L 17.10 78.13 L 17.17 77.20 L 17.26 76.28 L 17.36 75.36 L 17.47 74.44 L 17.59 73.52 L 17.73 72.60 L 17.88 71.69 L 18.05 70.78 L 18.22 69.87 L 18.41 68.97 L 18.61 68.06 L 18.83 67.17 L 19.05 66.27 L 19.29 65.38 L 19.54 64.50 L 19.80 63.61 L 20.08 62.73 L 20.37 61.86 L 20.67 60.99 L 20.98 60.13 L 21.30 59.27 L 21.63 58.42 L 21.98 57.57 L 22.34 56.72 L 22.71 55.89 L 23.09 55.06 L 23.48 54.23 L 23.88 53.41 L 24.30 52.60 L 24.72 51.79 L 25.16 50.99 L 25.61 50.20 L 26.07 49.41 L 26.54 48.63 L 27.02 47.86 L 27.51 47.09 L 28.01 46.34 L 28.52 45.59 L 29.04 44.84 L 29.57 44.11 L 30.11 43.38 L 30.66 42.66 L 31.22 41.95 L 31.79 41.25 L 32.37 40.56 L 32.96 39.88 L 33.55 39.20 L 34.16 38.53 L 34.78 37.88 L 35.40 37.23 L 36.03 36.59 L 36.67 35.96 L 37.32 35.34 L 37.98 34.73 L 38.65 34.13 L 39.32 33.54 L 40.00 32.96 L 40.69 32.39 L 41.39 31.83 L 42.09 31.27 L 42.80 30.73 L 43.52 30.21 L 44.24 29.69 L 44.97 29.18 L 45.71 28.68 L 46.46 28.19 L 47.21 27.72 L 47.96 27.25 L 48.73 26.80 L 49.50 26.36 L 50.27 25.92 L 51.05 25.50 L 51.83 25.10 L 52.62 24.70 L 53.42 24.31 L 54.22 23.94 L 55.02 23.58 L 55.83 23.23 L 56.64 22.89 L 57.46 22.56 L 58.28 22.24 L 59.10 21.94 L 59.93 21.65 L 60.76 21.37 L 61.60 21.10 L 62.44 20.85 L 63.28 20.61 L 64.12 20.38 L 64.97 20.16 L 65.81 19.95 L 66.66 19.76 L 67.52 19.58 L 68.37 19.41 L 69.22 19.25 L 70.08 19.11 L 70.94 18.98 L 71.80 18.86 L 72.66 18.75 L 73.52 18.66 L 74.38 18.58 L 75.24 18.51 L 76.10 18.45 L 76.97 18.41 L 77.83 18.38 L 78.69 18.36 L 79.55 18.36 L 80.41 18.37 L 81.27 18.39 L 82.12 18.42 L 82.98 18.47 L 83.83 18.53 L 84.69 18.61 L 85.54 18.70 L 86.38 18.80 L 87.23 18.91 L 88.07 19.04 L 88.91 19.19 L 89.74 19.36 L 90.57 19.54 L 91.40 19.77 L 91.40 19.77 L 90.54 19.81 L 89.70 19.83 L 88.86 19.84 L 88.02 19.87 L 87.18 19.90 L 86.34 19.93 L 85.50 19.98 L 84.67 20.04 L 83.84 20.11 L 83.01 20.18 L 82.18 20.27 L 81.35 20.37 L 80.53 20.48 L 79.71 20.60 L 78.89 20.72 L 78.08 20.86 L 77.26 21.01 L 76.45 21.17 L 75.65 21.34 L 74.84 21.52 L 74.04 21.71 L 73.25 21.92 L 72.45 22.13 L 71.66 22.35 L 70.88 22.58 L 70.09 22.83 L 69.32 23.08 L 68.54 23.34 L 67.77 23.62 L 67.01 23.90 L 66.25 24.19 L 65.49 24.50 L 64.74 24.81 L 64.00 25.13 L 63.26 25.46 L 62.52 25.81 L 61.79 26.16 L 61.07 26.52 L 60.35 26.89 L 59.64 27.27 L 58.93 27.66 L 58.23 28.06 L 57.53 28.47 L 56.85 28.89 L 56.16 29.31 L 55.49 29.75 L 54.82 30.19 L 54.16 30.64 L 53.50 31.11 L 52.85 31.58 L 52.21 32.05 L 51.58 32.54 L 50.95 33.03 L 50.33 33.54 L 49.72 34.05 L 49.11 34.57 L 48.52 35.09 L 47.93 35.63 L 47.34 36.17 L 46.77 36.72 L 46.21 37.27 L 45.65 37.84 L 45.10 38.41 L 44.56 38.99 L 44.03 39.57 L 43.50 40.16 L 42.99 40.76 L 42.48 41.37 L 41.99 41.98 L 41.50 42.59 L 41.02 43.22 L 40.55 43.85 L 40.08 44.48 L 39.63 45.12 L 39.19 45.77 L 38.76 46.42 L 38.33 47.08 L 37.92 47.74 L 37.51 48.41 L 37.11 49.08 L 36.73 49.76 L 36.35 50.44 L 35.98 51.13 L 35.63 51.82 L 35.28 52.52 L 34.94 53.22 L 34.61 53.92 L 34.30 54.63 L 33.99 55.34 L 33.69 56.06 L 33.40 56.78 L 33.13 57.50 L 32.86 58.22 L 32.60 58.95 L 32.36 59.68 L 32.12 60.42 L 31.90 61.15 L 31.68 61.89 L 31.48 62.63 L 31.28 63.38 L 31.10 64.12 L 30.92 64.87 L 30.76 65.62 L 30.61 66.37 L 30.46 67.12 L 30.33 67.88 L 30.21 68.63 L 30.10 69.39 L 30.00 70.14 L 29.91 70.90 L 29.83 71.66 L 29.76 72.42 L 29.70 73.17 L 29.66 73.93 L 29.62 74.69 L 29.59 75.45 L 29.58 76.21 L 29.57 76.97 L 29.58 77.72 L 29.59 78.48 L 29.62 79.24 L 29.65 79.99 L 29.70 80.74 L 29.76 81.50 L 29.82 82.25 L 29.90 83.00 L 29.99 83.74 L 30.09 84.49 L 30.20 85.23 L 30.31 85.97 L 30.44 86.71 L 30.58 87.45 L 30.73 88.18 L 30.89 88.92 L 31.06 89.64 L 31.24 90.37 L 31.43 91.09 L 31.63 91.81 L 31.83 92.53 L 32.05 93.24 L 32.28 93.95 L 32.52 94.66 L 32.76 95.36 L 33.02 96.05 L 33.29 96.75 L 33.56 97.44 L 33.85 98.12 L 34.14 98.80 L 34.44 99.48 L 34.75 100.15 L 35.07 100.81 L 35.40 101.47 L 35.74 102.13 L 36.09 102.78 L 36.45 103.42 L 36.81 104.06 L 37.19 104.70 L 37.57 105.33 L 37.96 105.95 L 38.36 106.57 L 38.76 107.18 L 39.18 107.78 L 39.60 108.38 L 40.03 108.97 L 40.47 109.56 L 40.92 110.13 L 41.37 110.71 L 41.83 111.27 L 42.30 111.83 L 42.78 112.38 L 43.26 112.93 L 43.75 113.46 L 44.24 114.00 L 44.71 114.55 L 45.18 115.11 L 45.63 115.68 L 46.07 116.27 L 46.49 116.87 L 46.91 117.48 L 47.33 118.11 L 47.73 118.75 L 48.12 119.41 L 48.52 120.09 L 48.90 120.78 L 49.29 121.48 L 49.67 122.20 L 50.05 122.94 L 50.43 123.69 L 50.81 124.46 L 51.20 125.23 L 51.59 126.03 L 51.98 126.83 L 52.39 127.65 L 52.80 128.47 L 53.22 129.31 L 53.65 130.15 L 54.09 131.00 L 54.55 131.86 L 55.02 132.72 L 55.51 133.58 Z" fill="url(#g)"/><path d="M 112.65 25.69 Q 106.45 26.94 102.53 26.18 A 3.76 3.76 0 1 1 104.98 19.07 Q 108.53 20.89 112.65 25.69 Z" fill="url(#g)"/><path d="M 112.49 26.42 L 113.48 26.36 L 114.48 26.33 L 115.48 26.31 L 116.48 26.32 L 117.48 26.36 L 118.49 26.43 L 119.48 26.52 L 120.48 26.65 L 121.46 26.80 L 122.44 26.99 L 123.41 27.21 L 124.37 27.46 L 125.32 27.74 L 126.25 28.06 L 127.17 28.41 L 128.07 28.80 L 128.96 29.21 L 129.82 29.66 L 130.66 30.15 L 131.48 30.66 L 132.27 31.21 L 133.04 31.79 L 133.78 32.40 L 134.50 33.04 L 135.19 33.71 L 135.84 34.41 L 136.47 35.13 L 137.07 35.88 L 137.65 36.64 L 138.21 37.42 L 138.77 38.19 L 139.31 38.98 L 139.84 39.78 L 140.36 40.58 L 140.87 41.39 L 141.37 42.20 L 141.86 43.02 L 142.33 43.85 L 142.79 44.68 L 143.24 45.52 L 143.68 46.36 L 144.11 47.21 L 144.52 48.07 L 144.93 48.93 L 145.31 49.80 L 145.69 50.67 L 146.06 51.54 L 146.41 52.42 L 146.75 53.31 L 147.08 54.19 L 147.39 55.09 L 147.69 55.98 L 147.98 56.88 L 148.26 57.79 L 148.52 58.69 L 148.78 59.60 L 149.01 60.51 L 149.24 61.43 L 149.45 62.35 L 149.65 63.27 L 149.84 64.19 L 150.01 65.11 L 150.17 66.04 L 150.32 66.96 L 150.45 67.89 L 150.58 68.82 L 150.68 69.75 L 150.78 70.69 L 150.86 71.62 L 150.93 72.55 L 150.99 73.49 L 151.03 74.42 L 151.06 75.35 L 151.08 76.29 L 151.08 77.22 L 151.07 78.15 L 151.05 79.08 L 151.01 80.01 L 150.97 80.94 L 150.90 81.87 L 150.83 82.80 L 150.74 83.72 L 150.64 84.64 L 150.53 85.56 L 150.41 86.48 L 150.27 87.40 L 150.12 88.31 L 149.95 89.22 L 149.78 90.13 L 149.59 91.03 L 149.39 91.94 L 149.17 92.83 L 148.95 93.73 L 148.71 94.62 L 148.46 95.50 L 148.20 96.39 L 147.92 97.27 L 147.63 98.14 L 147.33 99.01 L 147.02 99.87 L 146.70 100.73 L 146.37 101.58 L 146.02 102.43 L 145.66 103.28 L 145.29 104.11 L 144.91 104.94 L 144.52 105.77 L 144.12 106.59 L 143.70 107.40 L 143.28 108.21 L 142.84 109.01 L 142.39 109.80 L 141.93 110.59 L 141.46 111.37 L 140.98 112.14 L 140.49 112.91 L 139.99 113.66 L 139.48 114.41 L 138.96 115.16 L 138.43 115.89 L 137.89 116.62 L 137.34 117.34 L 136.78 118.05 L 136.21 118.75 L 135.63 119.44 L 135.04 120.12 L 134.45 120.80 L 133.84 121.47 L 133.22 122.12 L 132.60 122.77 L 131.97 123.41 L 131.33 124.04 L 130.68 124.66 L 130.02 125.27 L 129.35 125.87 L 128.68 126.46 L 128.00 127.04 L 127.31 127.61 L 126.61 128.17 L 125.91 128.73 L 125.20 129.27 L 124.48 129.79 L 123.76 130.31 L 123.03 130.82 L 122.29 131.32 L 121.54 131.81 L 120.79 132.28 L 120.04 132.75 L 119.27 133.20 L 118.50 133.64 L 117.73 134.08 L 116.95 134.50 L 116.17 134.90 L 115.38 135.30 L 114.58 135.69 L 113.78 136.06 L 112.98 136.42 L 112.17 136.77 L 111.36 137.11 L 110.54 137.44 L 109.72 137.76 L 108.90 138.06 L 108.07 138.35 L 107.24 138.63 L 106.40 138.90 L 105.56 139.15 L 104.72 139.39 L 103.88 139.62 L 103.03 139.84 L 102.19 140.05 L 101.34 140.24 L 100.48 140.42 L 99.63 140.59 L 98.78 140.75 L 97.92 140.89 L 97.06 141.02 L 96.20 141.14 L 95.34 141.25 L 94.48 141.34 L 93.62 141.42 L 92.76 141.49 L 91.90 141.55 L 91.03 141.59 L 90.17 141.62 L 89.31 141.64 L 88.45 141.64 L 87.59 141.63 L 86.73 141.61 L 85.88 141.58 L 85.02 141.53 L 84.17 141.47 L 83.31 141.39 L 82.46 141.30 L 81.62 141.20 L 80.77 141.09 L 79.93 140.96 L 79.09 140.81 L 78.26 140.64 L 77.43 140.46 L 76.60 140.23 L 76.60 140.23 L 77.46 140.19 L 78.30 140.17 L 79.14 140.16 L 79.98 140.13 L 80.82 140.10 L 81.66 140.07 L 82.50 140.02 L 83.33 139.96 L 84.16 139.89 L 84.99 139.82 L 85.82 139.73 L 86.65 139.63 L 87.47 139.52 L 88.29 139.40 L 89.11 139.28 L 89.92 139.14 L 90.74 138.99 L 91.55 138.83 L 92.35 138.66 L 93.16 138.48 L 93.96 138.29 L 94.75 138.08 L 95.55 137.87 L 96.34 137.65 L 97.12 137.42 L 97.91 137.17 L 98.68 136.92 L 99.46 136.66 L 100.23 136.38 L 100.99 136.10 L 101.75 135.81 L 102.51 135.50 L 103.26 135.19 L 104.00 134.87 L 104.74 134.54 L 105.48 134.19 L 106.21 133.84 L 106.93 133.48 L 107.65 133.11 L 108.36 132.73 L 109.07 132.34 L 109.77 131.94 L 110.47 131.53 L 111.15 131.11 L 111.84 130.69 L 112.51 130.25 L 113.18 129.81 L 113.84 129.36 L 114.50 128.89 L 115.15 128.42 L 115.79 127.95 L 116.42 127.46 L 117.05 126.97 L 117.67 126.46 L 118.28 125.95 L 118.89 125.43 L 119.48 124.91 L 120.07 124.37 L 120.66 123.83 L 121.23 123.28 L 121.79 122.73 L 122.35 122.16 L 122.90 121.59 L 123.44 121.01 L 123.97 120.43 L 124.50 119.84 L 125.01 119.24 L 125.52 118.63 L 126.01 118.02 L 126.50 117.41 L 126.98 116.78 L 127.45 116.15 L 127.92 115.52 L 128.37 114.88 L 128.81 114.23 L 129.24 113.58 L 129.67 112.92 L 130.08 112.26 L 130.49 111.59 L 130.89 110.92 L 131.27 110.24 L 131.65 109.56 L 132.02 108.87 L 132.37 108.18 L 132.72 107.48 L 133.06 106.78 L 133.39 106.08 L 133.70 105.37 L 134.01 104.66 L 134.31 103.94 L 134.60 103.22 L 134.87 102.50 L 135.14 101.78 L 135.40 101.05 L 135.64 100.32 L 135.88 99.58 L 136.10 98.85 L 136.32 98.11 L 136.52 97.37 L 136.72 96.62 L 136.90 95.88 L 137.08 95.13 L 137.24 94.38 L 137.39 93.63 L 137.54 92.88 L 137.67 92.12 L 137.79 91.37 L 137.90 90.61 L 138.00 89.86 L 138.09 89.10 L 138.17 88.34 L 138.24 87.58 L 138.30 86.83 L 138.34 86.07 L 138.38 85.31 L 138.41 84.55 L 138.42 83.79 L 138.43 83.03 L 138.42 82.28 L 138.41 81.52 L 138.38 80.76 L 138.35 80.01 L 138.30 79.26 L 138.24 78.50 L 138.18 77.75 L 138.10 77.00 L 138.01 76.26 L 137.91 75.51 L 137.80 74.77 L 137.69 74.03 L 137.56 73.29 L 137.42 72.55 L 137.27 71.82 L 137.11 71.08 L 136.94 70.36 L 136.76 69.63 L 136.57 68.91 L 136.37 68.19 L 136.17 67.47 L 135.95 66.76 L 135.72 66.05 L 135.48 65.34 L 135.24 64.64 L 134.98 63.95 L 134.71 63.25 L 134.44 62.56 L 134.15 61.88 L 133.86 61.20 L 133.56 60.52 L 133.25 59.85 L 132.93 59.19 L 132.60 58.53 L 132.26 57.87 L 131.91 57.22 L 131.55 56.58 L 131.19 55.94 L 130.81 55.30 L 130.43 54.67 L 130.04 54.05 L 129.64 53.43 L 129.24 52.82 L 128.82 52.22 L 128.40 51.62 L 127.97 51.03 L 127.53 50.44 L 127.08 49.87 L 126.63 49.29 L 126.17 48.73 L 125.70 48.17 L 125.22 47.62 L 124.74 47.07 L 124.25 46.54 L 123.76 46.00 L 123.29 45.45 L 122.82 44.89 L 122.37 44.32 L 121.93 43.73 L 121.51 43.13 L 121.09 42.52 L 120.67 41.89 L 120.27 41.25 L 119.88 40.59 L 119.48 39.91 L 119.10 39.22 L 118.71 38.52 L 118.33 37.80 L 117.95 37.06 L 117.57 36.31 L 117.19 35.54 L 116.80 34.77 L 116.41 33.97 L 116.02 33.17 L 115.61 32.35 L 115.20 31.53 L 114.78 30.69 L 114.35 29.85 L 113.91 29.00 L 113.45 28.14 L 112.98 27.28 L 112.49 26.42 Z" fill="url(#g)"/><path d="M 55.35 134.31 Q 61.55 133.06 65.47 133.82 A 3.76 3.76 0 1 1 63.02 140.93 Q 59.47 139.11 55.35 134.31 Z" fill="url(#g)"/><g transform="translate(166,77.0)"><path d="M494 142H203L153 0H34L283 696H415L664 0H544ZM462 235 349 558 235 235Z" transform="translate(0.00,0.00) scale(0.05000,-0.05000)" fill="#2697D0"/><path d="M488 471V551H603V-9Q603 -85 571.0 -144.5Q539 -204 478.5 -238.0Q418 -272 334 -272Q222 -272 148.0 -219.5Q74 -167 64 -77H177Q190 -120 232.5 -146.5Q275 -173 334 -173Q403 -173 445.5 -131.0Q488 -89 488 -9V83Q459 44 409.5 17.5Q360 -9 297 -9Q225 -9 165.5 27.5Q106 64 71.5 129.5Q37 195 37 278Q37 361 71.5 425.0Q106 489 165.5 524.5Q225 560 297 560Q361 560 410.5 534.5Q460 509 488 471ZM321 461Q277 461 239.0 439.5Q201 418 177.5 376.5Q154 335 154 278Q154 221 177.5 178.0Q201 135 239.5 112.5Q278 90 321 90Q365 90 403.0 112.0Q441 134 464.5 176.5Q488 219 488 276Q488 333 464.5 375.0Q441 417 403.0 439.0Q365 461 321 461Z" transform="translate(35.35,0.00) scale(0.05000,-0.05000)" fill="#2697D0"/><path d="M574 551V0H460V65Q433 31 389.5 11.5Q346 -8 297 -8Q232 -8 180.5 19.0Q129 46 99.5 99.0Q70 152 70 227V551H183V244Q183 170 220.0 130.5Q257 91 321 91Q385 91 422.5 130.5Q460 170 460 244V551Z" transform="translate(69.75,0.00) scale(0.05000,-0.05000)" fill="#2697D0"/><path d="M297 560Q362 560 410.5 534.5Q459 509 488 471V551H603V0H488V82Q459 43 409.0 17.0Q359 -9 295 -9Q224 -9 165.0 27.5Q106 64 71.5 129.5Q37 195 37 278Q37 361 71.5 425.0Q106 489 165.5 524.5Q225 560 297 560ZM321 461Q277 461 239.0 439.5Q201 418 177.5 376.5Q154 335 154 278Q154 221 177.5 178.0Q201 135 239.5 112.5Q278 90 321 90Q365 90 403.0 112.0Q441 134 464.5 176.5Q488 219 488 276Q488 333 464.5 375.0Q441 417 403.0 439.0Q365 461 321 461Z" transform="translate(102.70,0.00) scale(0.05000,-0.05000)" fill="#2697D0"/></g><g transform="translate(316.6,77.0)"><path d="M42 210H224Q228 171 251.0 150.5Q274 130 311 130Q349 130 371.0 147.5Q393 165 393 196Q393 222 375.5 239.0Q358 256 332.5 267.0Q307 278 260 292Q192 313 149.0 334.0Q106 355 75.0 396.0Q44 437 44 503Q44 601 115.0 656.5Q186 712 300 712Q416 712 487.0 656.5Q558 601 563 502H378Q376 536 353.0 555.5Q330 575 294 575Q263 575 244.0 558.5Q225 542 225 511Q225 477 257.0 458.0Q289 439 357 417Q425 394 467.5 373.0Q510 352 541.0 312.0Q572 272 572 209Q572 149 541.5 100.0Q511 51 453.0 22.0Q395 -7 316 -7Q239 -7 178.0 18.0Q117 43 80.5 92.0Q44 141 42 210Z" transform="translate(0.00,0.00) scale(0.05000,-0.05000)" fill="#0E4078"/><path d="M46 708Q46 748 74.5 774.5Q103 801 148 801Q192 801 220.5 774.5Q249 748 249 708Q249 669 220.5 642.5Q192 616 148 616Q103 616 74.5 642.5Q46 669 46 708ZM233 558V0H62V558Z" transform="translate(31.25,0.00) scale(0.05000,-0.05000)" fill="#0E4078"/><path d="M32 183H201Q204 154 228.0 136.0Q252 118 287 118Q319 118 336.5 130.5Q354 143 354 163Q354 187 329.0 198.5Q304 210 248 224Q188 238 148.0 253.5Q108 269 79.0 302.5Q50 336 50 393Q50 441 76.5 480.5Q103 520 154.5 543.0Q206 566 277 566Q382 566 442.5 514.0Q503 462 512 376H354Q350 405 328.5 422.0Q307 439 272 439Q242 439 226.0 427.5Q210 416 210 396Q210 372 235.5 360.0Q261 348 315 336Q377 320 416.0 304.5Q455 289 484.5 254.5Q514 220 515 162Q515 113 487.5 74.5Q460 36 408.5 14.0Q357 -8 289 -8Q216 -8 159.0 17.0Q102 42 69.0 85.5Q36 129 32 183Z" transform="translate(46.50,0.00) scale(0.05000,-0.05000)" fill="#0E4078"/><path d="M373 145V0H286Q193 0 141.0 45.5Q89 91 89 194V416H21V558H89V694H260V558H372V416H260V192Q260 167 272.0 156.0Q284 145 312 145Z" transform="translate(74.90,0.00) scale(0.05000,-0.05000)" fill="#0E4078"/><path d="M585 238H198Q202 186 231.5 158.5Q261 131 304 131Q368 131 393 185H575Q561 130 524.5 86.0Q488 42 433.0 17.0Q378 -8 310 -8Q228 -8 164.0 27.0Q100 62 64.0 127.0Q28 192 28 279Q28 366 63.5 431.0Q99 496 163.0 531.0Q227 566 310 566Q391 566 454.0 532.0Q517 498 552.5 435.0Q588 372 588 288Q588 264 585 238ZM413 333Q413 377 383.0 403.0Q353 429 308 429Q265 429 235.5 404.0Q206 379 199 333Z" transform="translate(95.70,0.00) scale(0.05000,-0.05000)" fill="#0E4078"/><path d="M1001 326V0H831V303Q831 357 802.5 386.5Q774 416 724 416Q674 416 645.5 386.5Q617 357 617 303V0H447V303Q447 357 418.5 386.5Q390 416 340 416Q290 416 261.5 386.5Q233 357 233 303V0H62V558H233V488Q259 523 301.0 543.5Q343 564 396 564Q459 564 508.5 537.0Q558 510 586 460Q615 506 665.0 535.0Q715 564 774 564Q878 564 939.5 501.0Q1001 438 1001 326Z" transform="translate(127.00,0.00) scale(0.05000,-0.05000)" fill="#0E4078"/></g><g transform="translate(166,108.0)"><path d="M168 697V0H77V697Z" transform="translate(0.00,0.00) scale(0.01200,-0.01200)" fill="#5b6b7a"/><path d="M625 0H534L168 555V0H77V698H168L534 144V698H625Z" transform="translate(4.25,0.00) scale(0.01200,-0.01200)" fill="#5b6b7a"/><path d="M605 495Q576 556 521.0 589.5Q466 623 393 623Q320 623 261.5 589.5Q203 556 169.5 493.5Q136 431 136 349Q136 267 169.5 205.0Q203 143 261.5 109.5Q320 76 393 76Q495 76 561.0 137.0Q627 198 638 302H360V376H735V306Q727 220 681.0 148.5Q635 77 560.0 35.5Q485 -6 393 -6Q296 -6 216.0 39.5Q136 85 89.5 166.0Q43 247 43 349Q43 451 89.5 532.5Q136 614 216.0 659.5Q296 705 393 705Q504 705 589.5 650.0Q675 595 714 495Z" transform="translate(13.99,0.00) scale(0.01200,-0.01200)" fill="#5b6b7a"/><path d="M168 623V390H422V315H168V75H452V0H77V698H452V623Z" transform="translate(24.62,0.00) scale(0.01200,-0.01200)" fill="#5b6b7a"/><path d="M625 0H534L168 555V0H77V698H168L534 144V698H625Z" transform="translate(32.08,0.00) scale(0.01200,-0.01200)" fill="#5b6b7a"/><path d="M168 697V0H77V697Z" transform="translate(41.82,0.00) scale(0.01200,-0.01200)" fill="#5b6b7a"/><path d="M168 623V390H422V315H168V75H452V0H77V698H452V623Z" transform="translate(46.07,0.00) scale(0.01200,-0.01200)" fill="#5b6b7a"/><path d="M444 0 278 285H168V0H77V697H302Q381 697 435.5 670.0Q490 643 517.0 597.0Q544 551 544 492Q544 420 502.5 365.0Q461 310 378 292L553 0ZM168 358H302Q376 358 413.0 394.5Q450 431 450 492Q450 554 413.5 588.0Q377 622 302 622H168Z" transform="translate(53.52,0.00) scale(0.01200,-0.01200)" fill="#5b6b7a"/><path d="M168 697V0H77V697ZM220 848 7 734V802L220 927Z" transform="translate(62.12,0.00) scale(0.01200,-0.01200)" fill="#5b6b7a"/><path d="M489 155H185L129 0H33L285 693H390L641 0H545ZM463 229 337 581 211 229Z" transform="translate(66.37,0.00) scale(0.01200,-0.01200)" fill="#5b6b7a"/><path d="M565 697 338 263V0H247V263L19 697H120L292 344L464 697Z" transform="translate(80.26,0.00) scale(0.01200,-0.01200)" fill="#5b6b7a"/><path d="M784 692V0H693V516L463 0H399L168 517V0H77V692H175L431 120L687 692Z" transform="translate(93.08,0.00) scale(0.01200,-0.01200)" fill="#5b6b7a"/><path d="M489 155H185L129 0H33L285 693H390L641 0H545ZM463 229 337 581 211 229Z" transform="translate(104.71,0.00) scale(0.01200,-0.01200)" fill="#5b6b7a"/><path d="M625 0H534L168 555V0H77V698H168L534 144V698H625Z" transform="translate(114.10,0.00) scale(0.01200,-0.01200)" fill="#5b6b7a"/><path d="M506 697V623H316V0H225V623H34V697Z" transform="translate(123.83,0.00) scale(0.01200,-0.01200)" fill="#5b6b7a"/><path d="M168 623V390H422V315H168V75H452V0H77V698H452V623Z" transform="translate(131.62,0.00) scale(0.01200,-0.01200)" fill="#5b6b7a"/><path d="M625 0H534L168 555V0H77V698H168L534 144V698H625Z" transform="translate(139.08,0.00) scale(0.01200,-0.01200)" fill="#5b6b7a"/><path d="M391 706Q505 706 590.0 651.0Q675 596 714 495H605Q576 558 521.5 592.0Q467 626 391 626Q318 626 260.0 592.0Q202 558 169.0 495.5Q136 433 136 349Q136 266 169.0 203.5Q202 141 260.0 107.0Q318 73 391 73Q467 73 521.5 106.5Q576 140 605 203H714Q675 103 590.0 48.5Q505 -6 391 -6Q294 -6 214.5 39.5Q135 85 89.0 166.0Q43 247 43 349Q43 451 89.0 532.5Q135 614 214.5 660.0Q294 706 391 706Z" transform="translate(148.82,0.00) scale(0.01200,-0.01200)" fill="#5b6b7a"/><path d="M168 697V0H77V697Z" transform="translate(159.38,0.00) scale(0.01200,-0.01200)" fill="#5b6b7a"/><path d="M43 349Q43 451 89.5 532.5Q136 614 216.0 659.5Q296 705 393 705Q491 705 571.0 659.5Q651 614 697.0 533.0Q743 452 743 349Q743 246 697.0 165.0Q651 84 571.0 38.5Q491 -7 393 -7Q296 -7 216.0 38.5Q136 84 89.5 165.5Q43 247 43 349ZM650 349Q650 433 616.5 495.5Q583 558 525.0 592.0Q467 626 393 626Q319 626 261.0 592.0Q203 558 169.5 495.5Q136 433 136 349Q136 266 169.5 203.0Q203 140 261.5 106.0Q320 72 393 72Q466 72 524.5 106.0Q583 140 616.5 203.0Q650 266 650 349ZM493 848 280 734V802L493 927Z" transform="translate(163.63,0.00) scale(0.01200,-0.01200)" fill="#5b6b7a"/><path d="M625 0H534L168 555V0H77V698H168L534 144V698H625Z" transform="translate(174.36,0.00) scale(0.01200,-0.01200)" fill="#5b6b7a"/><path d="M168 697V0H77V697Z" transform="translate(188.60,0.00) scale(0.01200,-0.01200)" fill="#5b6b7a"/><path d="M625 0H534L168 555V0H77V698H168L534 144V698H625Z" transform="translate(192.86,0.00) scale(0.01200,-0.01200)" fill="#5b6b7a"/><path d="M664 347Q664 240 619.5 161.5Q575 83 491.5 41.5Q408 0 294 0H77V697H294Q408 697 491.5 654.5Q575 612 619.5 533.0Q664 454 664 347ZM571 347Q571 477 499.5 550.0Q428 623 294 623H168V75H294Q429 75 500.0 146.5Q571 218 571 347Z" transform="translate(202.59,0.00) scale(0.01200,-0.01200)" fill="#5b6b7a"/><path d="M166 697V256Q166 163 211.5 118.0Q257 73 338 73Q418 73 463.5 118.0Q509 163 509 256V697H600V257Q600 170 565.0 110.5Q530 51 470.5 22.0Q411 -7 337 -7Q263 -7 203.5 22.0Q144 51 109.5 110.5Q75 170 75 257V697Z" transform="translate(212.38,0.00) scale(0.01200,-0.01200)" fill="#5b6b7a"/><path d="M57 186H154Q159 137 194.5 103.5Q230 70 298 70Q363 70 400.5 102.5Q438 135 438 186Q438 226 416.0 251.0Q394 276 361.0 289.0Q328 302 272 317Q203 335 161.5 353.0Q120 371 90.5 409.5Q61 448 61 513Q61 570 90.0 614.0Q119 658 171.5 682.0Q224 706 292 706Q390 706 452.5 657.0Q515 608 523 527H423Q418 567 381.0 597.5Q344 628 283 628Q226 628 190.0 598.5Q154 569 154 516Q154 478 175.5 454.0Q197 430 228.5 417.5Q260 405 317 389Q386 370 428.0 351.5Q470 333 500.0 294.5Q530 256 530 190Q530 139 503.0 94.0Q476 49 423.0 21.0Q370 -7 298 -7Q229 -7 174.5 17.5Q120 42 89.0 85.5Q58 129 57 186Z" transform="translate(221.78,0.00) scale(0.01200,-0.01200)" fill="#5b6b7a"/><path d="M506 697V623H316V0H225V623H34V697Z" transform="translate(230.12,0.00) scale(0.01200,-0.01200)" fill="#5b6b7a"/><path d="M444 0 278 285H168V0H77V697H302Q381 697 435.5 670.0Q490 643 517.0 597.0Q544 551 544 492Q544 420 502.5 365.0Q461 310 378 292L553 0ZM168 358H302Q376 358 413.0 394.5Q450 431 450 492Q450 554 413.5 588.0Q377 622 302 622H168Z" transform="translate(237.91,0.00) scale(0.01200,-0.01200)" fill="#5b6b7a"/><path d="M168 697V0H77V697Z" transform="translate(246.51,0.00) scale(0.01200,-0.01200)" fill="#5b6b7a"/><path d="M489 155H185L129 0H33L285 693H390L641 0H545ZM463 229 337 581 211 229Z" transform="translate(250.76,0.00) scale(0.01200,-0.01200)" fill="#5b6b7a"/><path d="M168 74H412V0H77V697H168Z" transform="translate(260.15,0.00) scale(0.01200,-0.01200)" fill="#5b6b7a"/><path d="M168 623V390H422V315H168V75H452V0H77V698H452V623Z" transform="translate(271.14,0.00) scale(0.01200,-0.01200)" fill="#5b6b7a"/><path d="M625 0H534L168 555V0H77V698H168L534 144V698H625Z" transform="translate(278.59,0.00) scale(0.01200,-0.01200)" fill="#5b6b7a"/><path d="M489 155H185L129 0H33L285 693H390L641 0H545ZM463 229 337 581 211 229Z" transform="translate(292.83,0.00) scale(0.01200,-0.01200)" fill="#5b6b7a"/><path d="M605 495Q576 556 521.0 589.5Q466 623 393 623Q320 623 261.5 589.5Q203 556 169.5 493.5Q136 431 136 349Q136 267 169.5 205.0Q203 143 261.5 109.5Q320 76 393 76Q495 76 561.0 137.0Q627 198 638 302H360V376H735V306Q727 220 681.0 148.5Q635 77 560.0 35.5Q485 -6 393 -6Q296 -6 216.0 39.5Q136 85 89.5 166.0Q43 247 43 349Q43 451 89.5 532.5Q136 614 216.0 659.5Q296 705 393 705Q504 705 589.5 650.0Q675 595 714 495Z" transform="translate(302.22,0.00) scale(0.01200,-0.01200)" fill="#5b6b7a"/><path d="M166 697V256Q166 163 211.5 118.0Q257 73 338 73Q418 73 463.5 118.0Q509 163 509 256V697H600V257Q600 170 565.0 110.5Q530 51 470.5 22.0Q411 -7 337 -7Q263 -7 203.5 22.0Q144 51 109.5 110.5Q75 170 75 257V697Z" transform="translate(312.86,0.00) scale(0.01200,-0.01200)" fill="#5b6b7a"/><path d="M489 155H185L129 0H33L285 693H390L641 0H545ZM463 229 337 581 211 229Z" transform="translate(322.26,0.00) scale(0.01200,-0.01200)" fill="#5b6b7a"/><path d="M57 186H154Q159 137 194.5 103.5Q230 70 298 70Q363 70 400.5 102.5Q438 135 438 186Q438 226 416.0 251.0Q394 276 361.0 289.0Q328 302 272 317Q203 335 161.5 353.0Q120 371 90.5 409.5Q61 448 61 513Q61 570 90.0 614.0Q119 658 171.5 682.0Q224 706 292 706Q390 706 452.5 657.0Q515 608 523 527H423Q418 567 381.0 597.5Q344 628 283 628Q226 628 190.0 598.5Q154 569 154 516Q154 478 175.5 454.0Q197 430 228.5 417.5Q260 405 317 389Q386 370 428.0 351.5Q470 333 500.0 294.5Q530 256 530 190Q530 139 503.0 94.0Q476 49 423.0 21.0Q370 -7 298 -7Q229 -7 174.5 17.5Q120 42 89.0 85.5Q58 129 57 186Z" transform="translate(331.64,0.00) scale(0.01200,-0.01200)" fill="#5b6b7a"/></g></svg>