<?xml version="1.0" encoding="UTF-8" standalone="no"?>
<!-- Created with Inkscape (http://www.inkscape.org/) -->

<svg
   xmlns:dc="http://purl.org/dc/elements/1.1/"
   xmlns:cc="http://creativecommons.org/ns#"
   xmlns:rdf="http://www.w3.org/1999/02/22-rdf-syntax-ns#"
   xmlns:svg="http://www.w3.org/2000/svg"
   xmlns="http://www.w3.org/2000/svg"
   version="1.1"
   width="430"
   height="175"
   id="svg2">
  <defs
     id="defs4">
    <clipPath
       id="clipPath3341">
      <path
         d="m 266.566,342.799 12.936,0 0,16.873 -12.936,0 0,-16.873 z"
         id="path3343" />
    </clipPath>
    <clipPath
       id="clipPath3337">
      <path
         d="m 266.566,359.672 12.936,0 0,-16.873 -12.936,0 0,16.873 z"
         id="path3339" />
    </clipPath>
    <clipPath
       id="clipPath3317">
      <path
         d="m 250.551,342.799 12.803,0 0,23.156 -12.803,0 0,-23.156 z"
         id="path3319" />
    </clipPath>
    <clipPath
       id="clipPath3313">
      <path
         d="m 250.551,365.955 12.803,0 0,-23.156 -12.803,0 0,23.156 z"
         id="path3315" />
    </clipPath>
    <clipPath
       id="clipPath3293">
      <path
         d="m 235.595,343.129 11.911,0 0,16.543 -11.911,0 0,-16.543 z"
         id="path3295" />
    </clipPath>
    <clipPath
       id="clipPath3289">
      <path
         d="m 235.595,359.672 11.911,0 0,-16.543 -11.911,0 0,16.543 z"
         id="path3291" />
    </clipPath>
    <clipPath
       id="clipPath3269">
      <path
         d="m 219.281,342.799 12.936,0 0,16.873 -12.936,0 0,-16.873 z"
         id="path3271" />
    </clipPath>
    <clipPath
       id="clipPath3265">
      <path
         d="m 219.281,359.672 12.936,0 0,-16.873 -12.936,0 0,16.873 z"
         id="path3267" />
    </clipPath>
    <clipPath
       id="clipPath3245">
      <path
         d="m 210.446,343.129 7.941,0 0,16.441 -7.941,0 0,-16.441 z"
         id="path3247" />
    </clipPath>
    <clipPath
       id="clipPath3241">
      <path
         d="m 210.446,359.571 7.941,0 0,-16.442 -7.941,0 0,16.442 z"
         id="path3243" />
    </clipPath>
    <clipPath
       id="clipPath3221">
      <path
         d="m 194.563,336.843 12.505,0 0,22.829 -12.505,0 0,-22.829 z"
         id="path3223" />
    </clipPath>
    <clipPath
       id="clipPath3217">
      <path
         d="m 194.563,359.672 12.505,0 0,-22.829 -12.505,0 0,22.829 z"
         id="path3219" />
    </clipPath>
    <clipPath
       id="clipPath3197">
      <path
         d="m 169.349,343.129 21.835,0 0,16.543 -21.835,0 0,-16.543 z"
         id="path3199" />
    </clipPath>
    <clipPath
       id="clipPath3193">
      <path
         d="m 169.349,359.672 21.835,0 0,-16.543 -21.835,0 0,16.543 z"
         id="path3195" />
    </clipPath>
    <clipPath
       id="clipPath3173">
      <path
         d="m 153.036,342.799 12.935,0 0,16.873 -12.935,0 0,-16.873 z"
         id="path3175" />
    </clipPath>
    <clipPath
       id="clipPath3169">
      <path
         d="m 153.036,359.672 12.935,0 0,-16.873 -12.935,0 0,16.873 z"
         id="path3171" />
    </clipPath>
    <clipPath
       id="clipPath3149">
      <path
         d="m 131.429,342.799 11.711,0 0,16.873 -11.711,0 0,-16.873 z"
         id="path3151" />
    </clipPath>
    <clipPath
       id="clipPath3145">
      <path
         d="m 131.429,359.672 11.711,0 0,-16.873 -11.711,0 0,16.873 z"
         id="path3147" />
    </clipPath>
    <clipPath
       id="clipPath3125">
      <path
         d="m 116.605,343.129 11.91,0 0,22.009 -11.91,0 0,-22.009 z"
         id="path3127" />
    </clipPath>
    <clipPath
       id="clipPath3121">
      <path
         d="m 116.605,365.139 11.91,0 0,-22.01 -11.91,0 0,22.01 z"
         id="path3123" />
    </clipPath>
    <clipPath
       id="clipPath3101">
      <path
         d="m 100.292,342.799 12.936,0 0,16.873 -12.936,0 0,-16.873 z"
         id="path3103" />
    </clipPath>
    <clipPath
       id="clipPath3097">
      <path
         d="m 100.292,359.672 12.936,0 0,-16.873 -12.936,0 0,16.873 z"
         id="path3099" />
    </clipPath>
    <clipPath
       id="clipPath3077">
      <path
         d="m 85.17,342.799 11.909,0 0,16.541 -11.909,0 0,-16.541 z"
         id="path3079" />
    </clipPath>
    <clipPath
       id="clipPath3073">
      <path
         d="m 85.1703,359.34 11.9092,0 0,-16.541 -11.9092,0 0,16.541 z"
         id="path3075" />
    </clipPath>
    <clipPath
       id="clipPath3053">
      <path
         d="m 72.034,342.799 10.156,0 0,16.873 -10.156,0 0,-16.873 z"
         id="path3055" />
    </clipPath>
    <clipPath
       id="clipPath3049">
      <path
         d="m 72.0336,359.672 10.1557,0 0,-16.873 -10.1557,0 0,16.873 z"
         id="path3051" />
    </clipPath>
    <clipPath
       id="clipPath3037">
      <path
         d="m 68.772,336.843 344.169,0 0,133.425 -344.169,0 0,-133.425 z"
         id="path3039" />
    </clipPath>
  </defs>
  <metadata
     id="metadata7">
    <rdf:RDF>
      <cc:Work
         rdf:about="">
        <dc:format>image/svg+xml</dc:format>
        <dc:type
           rdf:resource="http://purl.org/dc/dcmitype/StillImage" />
        <dc:title></dc:title>
      </cc:Work>
    </rdf:RDF>
  </metadata>
  <g
     transform="translate(-20.652533,-405.37376)"
     id="layer1">
    <g
       transform="matrix(1.1622197,0,0,-1.1622197,-44.275636,961.89374)"
       id="g3033">
      <g
         clip-path="url(#clipPath3037)"
         id="g3035">
        <g
           transform="translate(358.891,372.3577)"
           id="g3041">
          <path
             d="m 0,0 c 14.771,0.994 27.249,6.469 37.299,16.422 11.165,11.061 16.751,25.032 16.751,41.901 0,15.38 -4.39,28.572 -13.772,39.055 -0.272,0.303 -0.739,0.532 -1.177,0.532 -0.843,0 -1.529,-0.684 -1.529,-1.53 0,-0.146 0.018,-0.285 0.057,-0.422 C 44.547,77.361 40.521,58.668 28.308,53.723 19.753,50.26 9.391,54.439 1.209,63.5 c -0.615,0.615 -1.66,0.632 -2.275,0.02 -0.558,-0.558 -0.608,-1.429 -0.156,-2.042 0,0 0.167,-0.194 0.17,-0.198 C 6.016,53.305 9.624,43.426 9.624,31.825 9.624,20.244 6.066,10.515 -1.045,2.639 -1.34,2.36 -1.527,1.965 -1.527,1.527 -1.527,0.684 -0.844,0 0,0"
             id="path3043"
             style="fill:#006cb7;fill-opacity:1;fill-rule:nonzero;stroke:none" />
        </g>
        <g
           id="g3045">
          <g
             id="g3047" />
          <g
             id="g3057">
            <g
               clip-path="url(#clipPath3049)"
               id="g3059"
               style="opacity:0.60000598">
              <g
                 id="g3061">
                <g
                   clip-path="url(#clipPath3053)"
                   id="g3063">
                  <g
                     transform="translate(73.6874,355.5374)"
                     id="g3065">
                    <path
                       d="m 0,0 c 0,-3.906 8.502,-2.549 8.502,-8.106 0,-2.451 -1.919,-4.632 -5.259,-4.632 -2.019,0 -3.772,0.794 -4.897,1.554 l 0.629,1.258 c 0.893,-0.662 2.646,-1.554 4.3,-1.554 2.316,0 3.64,1.29 3.64,3.306 0,4.434 -8.404,2.715 -8.404,8.205 0,2.117 1.522,4.104 4.93,4.104 1.72,0 3.572,-0.332 4.996,-1.194 L 7.907,1.719 C 6.583,2.48 5.261,2.811 3.441,2.811 1.125,2.811 0,1.752 0,0"
                       id="path3067"
                       style="fill:#006cb7;fill-opacity:1;fill-rule:nonzero;stroke:none" />
                  </g>
                </g>
              </g>
            </g>
          </g>
        </g>
        <g
           id="g3069">
          <g
             id="g3071" />
          <g
             id="g3081">
            <g
               clip-path="url(#clipPath3073)"
               id="g3083"
               style="opacity:0.60000598">
              <g
                 id="g3085">
                <g
                   clip-path="url(#clipPath3077)"
                   id="g3087">
                  <g
                     transform="translate(95.8558,343.1292)"
                     id="g3089">
                    <path
                       d="M 0,0 -0.231,1.787 C -1.025,0.959 -2.878,-0.33 -5.228,-0.33 c -3.374,0 -5.458,2.117 -5.458,6.518 l 0,10.023 1.621,0 0,-9.727 c 0,-3.803 1.125,-5.425 4.069,-5.425 1.787,0 3.408,0.893 4.565,1.886 l 0,13.266 1.655,0 L 1.224,0 0,0 z"
                       id="path3091"
                       style="fill:#006cb7;fill-opacity:1;fill-rule:nonzero;stroke:none" />
                  </g>
                </g>
              </g>
            </g>
          </g>
        </g>
        <g
           id="g3093">
          <g
             id="g3095" />
          <g
             id="g3105">
            <g
               clip-path="url(#clipPath3097)"
               id="g3107"
               style="opacity:0.60000598">
              <g
                 id="g3109">
                <g
                   clip-path="url(#clipPath3101)"
                   id="g3111">
                  <g
                     transform="translate(106.8759,358.4144)"
                     id="g3113">
                    <path
                       d="m 0,0 c -3.541,0 -4.996,-3.176 -4.996,-6.352 l 9.76,0 C 4.764,-3.176 3.639,0 0,0 m -4.996,-7.643 c 0,-4.697 2.35,-6.683 5.624,-6.683 2.316,0 4.235,1.158 5.195,1.822 l 0.529,-1.191 c -1.39,-0.862 -3.408,-1.92 -5.823,-1.92 -4.202,0 -7.113,2.877 -7.113,8.57 0,5.226 2.481,8.303 6.683,8.303 4.4,0 6.253,-3.673 6.253,-7.743 l 0,-1.158 -11.348,0 z"
                       id="path3115"
                       style="fill:#006cb7;fill-opacity:1;fill-rule:nonzero;stroke:none" />
                  </g>
                </g>
              </g>
            </g>
          </g>
        </g>
        <g
           id="g3117">
          <g
             id="g3119" />
          <g
             id="g3129">
            <g
               clip-path="url(#clipPath3121)"
               id="g3131"
               style="opacity:0.60000598">
              <g
                 id="g3133">
                <g
                   clip-path="url(#clipPath3125)"
                   id="g3135">
                  <g
                     transform="translate(124.0814,362.3499)"
                     id="g3137">
                    <path
                       d="M 0,0 -3.242,1.191 C -4.367,1.623 -5.194,1.225 -5.69,0.332 l -0.96,0.43 c 0.563,1.489 1.787,2.515 3.672,1.787 L 0.199,1.358 c 1.059,-0.397 1.753,0 2.117,0.959 L 3.275,1.953 C 2.978,0.332 1.754,-0.627 0,0 m 2.779,-19.221 0,9.893 c 0,3.407 -0.992,5.326 -4.102,5.326 -1.985,0 -3.441,-1.158 -4.533,-2.249 l 0,-12.97 -1.621,0 0,16.211 1.059,0 0.43,-1.951 c 0.893,0.893 2.613,2.283 5.062,2.283 3.639,0 5.36,-2.218 5.36,-6.187 l 0,-10.356 -1.655,0 z"
                       id="path3139"
                       style="fill:#006cb7;fill-opacity:1;fill-rule:nonzero;stroke:none" />
                  </g>
                </g>
              </g>
            </g>
          </g>
        </g>
        <g
           id="g3141">
          <g
             id="g3143" />
          <g
             id="g3153">
            <g
               clip-path="url(#clipPath3145)"
               id="g3155"
               style="opacity:0.60000598">
              <g
                 id="g3157">
                <g
                   clip-path="url(#clipPath3149)"
                   id="g3159">
                  <g
                     transform="translate(141.5853,350.9378)"
                     id="g3161">
                    <path
                       d="m 0,0 -4.4,0 c -3.209,0 -4.201,-1.391 -4.201,-3.211 0,-2.148 1.191,-3.67 3.903,-3.67 1.886,0 3.639,1.156 4.698,2.481 L 0,0 z m 0.464,-7.809 -0.365,2.184 c -1.025,-1.256 -2.845,-2.514 -5.127,-2.514 -3.342,0 -5.128,2.283 -5.128,4.863 0,2.713 1.984,4.533 5.558,4.533 L 0,1.257 0,2.779 C 0,5.986 -1.224,7.41 -4.036,7.41 -6.153,7.41 -7.907,6.814 -8.999,6.318 l -0.462,1.223 c 1.125,0.498 2.911,1.193 5.657,1.193 3.441,0 5.359,-1.886 5.359,-5.658 l 0,-10.885 -1.091,0 z"
                       id="path3163"
                       style="fill:#006cb7;fill-opacity:1;fill-rule:nonzero;stroke:none" />
                  </g>
                </g>
              </g>
            </g>
          </g>
        </g>
        <g
           id="g3165">
          <g
             id="g3167" />
          <g
             id="g3177">
            <g
               clip-path="url(#clipPath3169)"
               id="g3179"
               style="opacity:0.80000299">
              <g
                 id="g3181">
                <g
                   clip-path="url(#clipPath3173)"
                   id="g3183">
                  <g
                     transform="translate(159.6195,358.4144)"
                     id="g3185">
                    <path
                       d="m 0,0 c -3.54,0 -4.995,-3.176 -4.995,-6.352 l 9.759,0 C 4.764,-3.176 3.64,0 0,0 m -4.995,-7.643 c 0,-4.697 2.349,-6.683 5.624,-6.683 2.316,0 4.235,1.158 5.194,1.822 l 0.529,-1.191 c -1.39,-0.862 -3.407,-1.92 -5.823,-1.92 -4.201,0 -7.112,2.877 -7.112,8.57 0,5.226 2.48,8.303 6.683,8.303 4.399,0 6.252,-3.673 6.252,-7.743 l 0,-1.158 -11.347,0 z"
                       id="path3187"
                       style="fill:#006cb7;fill-opacity:1;fill-rule:nonzero;stroke:none" />
                  </g>
                </g>
              </g>
            </g>
          </g>
        </g>
        <g
           id="g3189">
          <g
             id="g3191" />
          <g
             id="g3201">
            <g
               clip-path="url(#clipPath3193)"
               id="g3203"
               style="opacity:0.80000299">
              <g
                 id="g3205">
                <g
                   clip-path="url(#clipPath3197)"
                   id="g3207">
                  <g
                     transform="translate(179.4403,343.1292)"
                     id="g3209">
                    <path
                       d="m 0,0 0,9.893 c 0,3.407 -0.894,5.326 -4.003,5.326 -1.986,0 -3.376,-1.158 -4.467,-2.249 l 0,-12.97 -1.621,0 0,16.211 1.059,0 0.429,-1.984 c 0.894,0.892 2.548,2.316 4.963,2.316 2.316,0 3.838,-0.894 4.632,-2.582 0.926,0.96 2.713,2.582 5.128,2.582 3.639,0 5.625,-2.118 5.625,-6.188 l 0,-10.355 -1.655,0 0,9.893 c 0,3.439 -1.224,5.326 -4.335,5.326 -1.719,0 -3.307,-1.092 -4.4,-2.249 0.199,-0.762 0.298,-1.622 0.298,-2.615 L 1.653,0 0,0 z"
                       id="path3211"
                       style="fill:#006cb7;fill-opacity:1;fill-rule:nonzero;stroke:none" />
                  </g>
                </g>
              </g>
            </g>
          </g>
        </g>
        <g
           id="g3213">
          <g
             id="g3215" />
          <g
             id="g3225">
            <g
               clip-path="url(#clipPath3217)"
               id="g3227"
               style="opacity:0.80000299">
              <g
                 id="g3229">
                <g
                   clip-path="url(#clipPath3221)"
                   id="g3231">
                  <g
                     transform="translate(196.1845,345.9408)"
                     id="g3233">
                    <path
                       d="m 0,0 c 1.191,-1.157 2.68,-1.884 4.334,-1.884 3.441,0 4.897,2.182 4.897,7.211 0,4.467 -1.258,7.08 -4.698,7.08 C 2.747,12.407 1.092,11.38 0,10.257 L 0,0 z m -0.132,11.448 c 1.323,1.357 2.944,2.283 4.929,2.283 4.302,0 6.087,-3.044 6.087,-8.404 0,-5.757 -2.613,-8.469 -6.55,-8.469 -1.984,0 -3.374,0.76 -4.599,1.852 L 0,-3.239 l 0,-5.859 -1.621,0 0,22.497 1.058,0 0.431,-1.951 z"
                       id="path3235"
                       style="fill:#006cb7;fill-opacity:1;fill-rule:nonzero;stroke:none" />
                  </g>
                </g>
              </g>
            </g>
          </g>
        </g>
        <g
           id="g3237">
          <g
             id="g3239" />
          <g
             id="g3249">
            <g
               clip-path="url(#clipPath3241)"
               id="g3251"
               style="opacity:0.80000299">
              <g
                 id="g3253">
                <g
                   clip-path="url(#clipPath3245)"
                   id="g3255">
                  <g
                     transform="translate(218.1879,357.8831)"
                     id="g3257">
                    <path
                       d="m 0,0 c -0.396,0.167 -1.158,0.299 -2.117,0.299 -1.72,0 -3.077,-1.092 -4.003,-2.083 l 0,-12.97 -1.621,0 0,16.211 1.058,0 0.431,-1.984 c 0.728,0.859 2.216,2.215 4.3,2.215 1.357,0 2.151,-0.295 2.151,-0.295 L 0,0 z"
                       id="path3259"
                       style="fill:#006cb7;fill-opacity:1;fill-rule:nonzero;stroke:none" />
                  </g>
                </g>
              </g>
            </g>
          </g>
        </g>
        <g
           id="g3261">
          <g
             id="g3263" />
          <g
             id="g3273">
            <g
               clip-path="url(#clipPath3265)"
               id="g3275"
               style="opacity:0.80000299">
              <g
                 id="g3277">
                <g
                   clip-path="url(#clipPath3269)"
                   id="g3279">
                  <g
                     transform="translate(225.8656,358.4144)"
                     id="g3281">
                    <path
                       d="m 0,0 c -3.541,0 -4.996,-3.176 -4.996,-6.352 l 9.76,0 C 4.764,-3.176 3.639,0 0,0 m -4.996,-7.643 c 0,-4.697 2.349,-6.683 5.624,-6.683 2.316,0 4.235,1.158 5.194,1.822 l 0.53,-1.191 c -1.39,-0.862 -3.408,-1.92 -5.823,-1.92 -4.201,0 -7.113,2.877 -7.113,8.57 0,5.226 2.481,8.303 6.683,8.303 4.4,0 6.253,-3.673 6.253,-7.743 l 0,-1.158 -11.348,0 z"
                       id="path3283"
                       style="fill:#006cb7;fill-opacity:1;fill-rule:nonzero;stroke:none" />
                  </g>
                </g>
              </g>
            </g>
          </g>
        </g>
        <g
           id="g3285">
          <g
             id="g3287" />
          <g
             id="g3297">
            <g
               clip-path="url(#clipPath3289)"
               id="g3299"
               style="opacity:0.80000299">
              <g
                 id="g3301">
                <g
                   clip-path="url(#clipPath3293)"
                   id="g3303">
                  <g
                     transform="translate(245.851,343.1292)"
                     id="g3305">
                    <path
                       d="m 0,0 0,9.893 c 0,3.407 -0.993,5.326 -4.103,5.326 -1.985,0 -3.44,-1.158 -4.532,-2.249 l 0,-12.97 -1.621,0 0,16.211 1.058,0 0.431,-1.951 c 0.892,0.892 2.613,2.283 5.062,2.283 3.64,0 5.36,-2.218 5.36,-6.188 L 1.655,0 0,0 z"
                       id="path3307"
                       style="fill:#006cb7;fill-opacity:1;fill-rule:nonzero;stroke:none" />
                  </g>
                </g>
              </g>
            </g>
          </g>
        </g>
        <g
           id="g3309">
          <g
             id="g3311" />
          <g
             id="g3321">
            <g
               clip-path="url(#clipPath3313)"
               id="g3323"
               style="opacity:0.80000299">
              <g
                 id="g3325">
                <g
                   clip-path="url(#clipPath3317)"
                   id="g3327">
                  <g
                     transform="translate(261.7338,357.0902)"
                     id="g3329">
                    <path
                       d="m 0,0 c -0.827,0.596 -2.349,1.324 -4.434,1.324 -3.54,0 -5.095,-2.877 -5.095,-7.113 0,-4.103 1.323,-7.244 4.897,-7.244 1.621,0 3.043,0.693 4.632,2.381 L 0,0 z m 0.165,-11.909 c -1.059,-1.358 -3.045,-2.382 -4.863,-2.382 -3.87,0 -6.485,2.977 -6.485,8.502 0,4.73 2.184,8.371 6.715,8.371 2.119,0 3.606,-0.695 4.568,-1.292 L 0,3.905 l 0,4.96 1.621,0 0,-22.826 -1.093,0 -0.363,2.052 z"
                       id="path3331"
                       style="fill:#006cb7;fill-opacity:1;fill-rule:nonzero;stroke:none" />
                  </g>
                </g>
              </g>
            </g>
          </g>
        </g>
        <g
           id="g3333">
          <g
             id="g3335" />
          <g
             id="g3345">
            <g
               clip-path="url(#clipPath3337)"
               id="g3347"
               style="opacity:0.80000299">
              <g
                 id="g3349">
                <g
                   clip-path="url(#clipPath3341)"
                   id="g3351">
                  <g
                     transform="translate(273.1498,358.4144)"
                     id="g3353">
                    <path
                       d="m 0,0 c -3.54,0 -4.994,-3.176 -4.994,-6.352 l 9.759,0 C 4.765,-3.176 3.64,0 0,0 m -4.994,-7.643 c 0,-4.697 2.348,-6.683 5.623,-6.683 2.315,0 4.235,1.158 5.194,1.822 l 0.53,-1.191 c -1.39,-0.862 -3.409,-1.92 -5.823,-1.92 -4.202,0 -7.113,2.877 -7.113,8.57 0,5.226 2.48,8.303 6.682,8.303 4.401,0 6.254,-3.673 6.254,-7.743 l 0,-1.158 -11.347,0 z"
                       id="path3355"
                       style="fill:#006cb7;fill-opacity:1;fill-rule:nonzero;stroke:none" />
                  </g>
                </g>
              </g>
            </g>
          </g>
        </g>
        <g
           transform="translate(300.8773,344.2542)"
           id="g3357">
          <path
             d="m 0,0 c -1.025,-0.629 -2.91,-1.455 -5.227,-1.455 -3.772,0 -6.783,2.25 -6.783,8.435 0,5.592 3.011,8.438 6.717,8.438 1.688,0 3.738,-0.365 5.16,-1.258 l -0.528,-1.224 c -1.323,0.794 -2.845,1.125 -4.632,1.125 -3.242,0 -5.161,-2.747 -5.161,-7.081 0,-4.962 1.985,-7.112 5.227,-7.112 2.118,0 3.706,0.661 4.864,1.421 L 0,0 z"
             id="path3359"
             style="fill:#006cb7;fill-opacity:1;fill-rule:nonzero;stroke:none" />
        </g>
        <g
           transform="translate(311.434,357.8831)"
           id="g3361">
          <path
             d="m 0,0 c -0.397,0.167 -1.158,0.299 -2.118,0.299 -1.72,0 -3.075,-1.092 -4.003,-2.083 l 0,-12.97 -1.621,0 0,16.211 1.059,0 0.43,-1.984 c 0.728,0.859 2.216,2.215 4.301,2.215 1.356,0 2.15,-0.295 2.15,-0.295 L 0,0 z"
             id="path3363"
             style="fill:#006cb7;fill-opacity:1;fill-rule:nonzero;stroke:none" />
        </g>
        <g
           transform="translate(319.1107,358.4144)"
           id="g3365">
          <path
             d="m 0,0 c -3.54,0 -4.995,-3.176 -4.995,-6.352 l 9.76,0 C 4.765,-3.176 3.639,0 0,0 m -4.995,-7.643 c 0,-4.697 2.349,-6.683 5.623,-6.683 2.316,0 4.236,1.158 5.195,1.822 l 0.529,-1.191 c -1.39,-0.862 -3.408,-1.92 -5.823,-1.92 -4.202,0 -7.112,2.877 -7.112,8.57 0,5.226 2.48,8.303 6.682,8.303 4.4,0 6.253,-3.673 6.253,-7.743 l 0,-1.158 -11.347,0 z"
             id="path3367"
             style="fill:#006cb7;fill-opacity:1;fill-rule:nonzero;stroke:none" />
        </g>
        <g
           transform="translate(340.3207,344.2542)"
           id="g3369">
          <path
             d="m 0,0 c -1.025,-0.629 -2.912,-1.455 -5.229,-1.455 -3.769,0 -6.781,2.25 -6.781,8.435 0,5.592 3.012,8.438 6.716,8.438 1.688,0 3.739,-0.365 5.161,-1.258 l -0.529,-1.224 c -1.324,0.794 -2.846,1.125 -4.632,1.125 -3.241,0 -5.161,-2.747 -5.161,-7.081 0,-4.962 1.985,-7.112 5.226,-7.112 2.119,0 3.708,0.661 4.865,1.421 L 0,0 z"
             id="path3371"
             style="fill:#006cb7;fill-opacity:1;fill-rule:nonzero;stroke:none" />
        </g>
        <g
           transform="translate(349.223,358.4144)"
           id="g3373">
          <path
             d="m 0,0 c -3.54,0 -4.996,-3.176 -4.996,-6.352 l 9.76,0 C 4.764,-3.176 3.638,0 0,0 m -4.996,-7.643 c 0,-4.697 2.35,-6.683 5.624,-6.683 2.315,0 4.234,1.158 5.194,1.822 l 0.53,-1.191 c -1.391,-0.862 -3.409,-1.92 -5.824,-1.92 -4.201,0 -7.112,2.877 -7.112,8.57 0,5.226 2.48,8.303 6.683,8.303 4.399,0 6.253,-3.673 6.253,-7.743 l 0,-1.158 -11.348,0 z"
             id="path3375"
             style="fill:#006cb7;fill-opacity:1;fill-rule:nonzero;stroke:none" />
        </g>
        <g
           transform="translate(222.8881,410.1201)"
           id="g3377">
          <path
             d="m 0,0 c -1.442,-0.707 -4.656,-1.059 -8.537,-1.059 l -2.912,0 0,17.96 2.299,0 c 3.754,0 6.992,-0.298 8.615,-0.895 C 1.086,15.409 2.343,14.381 3.235,12.93 4.13,11.475 4.577,9.853 4.577,8.063 4.577,6.242 4.177,4.619 3.372,3.195 2.566,1.77 1.442,0.706 0,0 m 21.548,-32.581 c -1.235,1.788 -2.874,4.451 -4.919,7.997 -3.25,5.632 -5.771,9.577 -7.564,11.842 -1.793,2.26 -3.628,4.048 -5.504,5.363 3.193,1.308 6.194,3.287 7.902,5.936 1.71,2.655 2.564,5.795 2.564,9.429 0,5.331 -1.742,9.562 -5.232,12.689 -3.486,3.125 -8.753,4.692 -14.69,4.692 l -14.708,0 0,-62.416 9.154,0 0,27.165 0.653,0 c 2.748,0 4.704,-0.335 5.87,-1.005 1.162,-0.67 2.468,-1.762 3.912,-3.279 1.445,-1.514 3.034,-3.553 4.767,-6.12 l 2.814,-4.873 2.602,-4.558 1.637,-2.457 c 0.25,-0.36 0.419,-0.612 0.504,-0.762 l 2.56,-4.111 10.787,0 -3.109,4.468 z"
             id="path3379"
             style="fill:#006cb7;fill-opacity:1;fill-rule:nonzero;stroke:none" />
        </g>
        <g
           transform="translate(255.1644,435.4868)"
           id="g3381">
          <path
             d="m 0,0 31.309,0 0,-8.81 -22.038,0 0,-15.737 22.038,0 0,-8.783 -22.038,0 0,-29.086 -9.271,0 L 0,0 z"
             id="path3383"
             style="fill:#006cb7;fill-opacity:1;fill-rule:nonzero;stroke:none" />
        </g>
        <g
           transform="translate(176.7094,387.3558)"
           id="g3385">
          <path
             d="m 0,0 c -4.208,-4.572 -9.458,-6.861 -15.752,-6.861 -6.264,0 -11.482,2.246 -15.649,6.728 -4.169,4.482 -6.252,10.102 -6.252,16.856 0,6.961 2.078,12.685 6.232,17.169 4.155,4.481 9.459,6.724 15.912,6.724 6.131,0 11.301,-2.267 15.509,-6.79 C 4.209,29.294 6.314,23.714 6.314,17.079 6.314,10.266 4.209,4.575 0,0 m 6.819,39.868 c -6.033,6.104 -13.586,9.157 -22.657,9.157 -9.072,0 -16.575,-3.053 -22.509,-9.157 -5.936,-6.11 -8.903,-13.826 -8.903,-23.145 0,-9.088 2.946,-16.645 8.84,-22.678 5.892,-6.03 13.263,-9.046 22.111,-9.046 9.267,0 16.944,3.016 23.035,9.046 6.089,6.033 9.134,13.654 9.134,22.852 0,9.211 -3.017,16.861 -9.051,22.971"
             id="path3387"
             style="fill:#006cb7;fill-opacity:1;fill-rule:nonzero;stroke:none" />
        </g>
        <g
           transform="translate(342.1556,387.3558)"
           id="g3389">
          <path
             d="m 0,0 c -4.21,-4.572 -9.46,-6.861 -15.753,-6.861 -6.264,0 -11.481,2.246 -15.65,6.728 -4.168,4.482 -6.25,10.102 -6.25,16.856 0,6.961 2.076,12.685 6.23,17.169 4.156,4.481 9.46,6.724 15.913,6.724 6.13,0 11.3,-2.267 15.51,-6.79 C 4.208,29.294 6.313,23.714 6.313,17.079 6.313,10.266 4.208,4.575 0,0 m 6.817,39.868 c -6.034,6.104 -13.586,9.157 -22.657,9.157 -9.071,0 -16.575,-3.053 -22.509,-9.157 -5.936,-6.11 -8.903,-13.826 -8.903,-23.145 0,-9.088 2.946,-16.645 8.841,-22.678 5.892,-6.03 13.264,-9.046 22.109,-9.046 9.268,0 16.946,3.016 23.035,9.046 6.09,6.033 9.135,13.654 9.135,22.852 0,9.211 -3.017,16.861 -9.051,22.971"
             id="path3391"
             style="fill:#006cb7;fill-opacity:1;fill-rule:nonzero;stroke:none" />
        </g>
        <g
           transform="translate(120.8568,387.3558)"
           id="g3393">
          <path
             d="m 0,0 c -4.785,-4.572 -10.75,-6.861 -17.901,-6.861 -7.12,0 -13.048,2.246 -17.785,6.728 -4.737,4.482 -7.104,10.102 -7.104,16.856 0,6.961 2.36,12.685 7.082,17.169 4.722,4.481 10.747,6.724 18.083,6.724 6.966,0 12.84,-2.267 17.625,-6.79 0.053,-0.054 0.097,-0.102 0.15,-0.153 l 0,0.519 0,8.709 0,0.898 c -7.537,3.425 -14.386,5.139 -20.549,5.139 -8.937,0 -16.452,-3.099 -22.546,-9.297 -6.094,-6.194 -9.14,-13.834 -9.14,-22.918 0,-5.719 1.331,-11.035 3.992,-15.948 2.662,-4.92 6.275,-8.777 10.842,-11.577 4.565,-2.8 10.127,-4.199 16.683,-4.199 8.069,0 15.185,1.786 21.348,5.362 l 0,0.887 0,8.944 0,0.561 C 0.756,0.737 0.73,0.725 0.704,0.709 0.475,0.473 0.241,0.23 0,0"
             id="path3395"
             style="fill:#006cb7;fill-opacity:1;fill-rule:nonzero;stroke:none" />
        </g>
        <g
           transform="translate(389.4076,449.5697)"
           id="g3397">
          <path
             d="m 0,0 c -2.147,2.172 -4.835,3.259 -8.062,3.259 -3.228,0 -5.896,-1.087 -8.007,-3.259 -2.114,-2.174 -3.169,-4.919 -3.169,-8.235 0,-3.233 1.048,-5.919 3.145,-8.067 2.098,-2.148 4.72,-3.221 7.869,-3.221 3.295,0 6.027,1.073 8.195,3.221 2.167,2.148 3.25,4.856 3.25,8.131 C 3.221,-4.898 2.147,-2.174 0,0"
             id="path3399"
             style="fill:#006cb7;fill-opacity:1;fill-rule:nonzero;stroke:none" />
        </g>
      </g>
    </g>
  </g>
</svg>
