<?xml version="1.0" encoding="UTF-8" standalone="no"?>
<!-- Created with sK1/UniConvertor (http://sk1project.org/) -->

<svg
   xmlns:dc="http://purl.org/dc/elements/1.1/"
   xmlns:cc="http://creativecommons.org/ns#"
   xmlns:rdf="http://www.w3.org/1999/02/22-rdf-syntax-ns#"
   xmlns:svg="http://www.w3.org/2000/svg"
   xmlns="http://www.w3.org/2000/svg"
   xmlns:sodipodi="http://sodipodi.sourceforge.net/DTD/sodipodi-0.dtd"
   xmlns:inkscape="http://www.inkscape.org/namespaces/inkscape"
   width="850"
   height="320"
   viewBox="0 0 680.00003 255.99998"
   id="svg2"
   version="1.1"
   inkscape:version="0.48.4 r9939"
   sodipodi:docname="Señal Colombia logo.svg"
   style="fill-rule:evenodd">
  <title
     id="title3023">Señal Colombia logo</title>
  <metadata
     id="metadata46">
    <rdf:RDF>
      <cc:Work
         rdf:about="">
        <dc:format>image/svg+xml</dc:format>
        <dc:type
           rdf:resource="http://purl.org/dc/dcmitype/StillImage" />
        <dc:title>Señal Colombia logo</dc:title>
      </cc:Work>
    </rdf:RDF>
  </metadata>
  <defs
     id="defs44" />
  <sodipodi:namedview
     pagecolor="#ffffff"
     bordercolor="#666666"
     borderopacity="1"
     objecttolerance="10"
     gridtolerance="10"
     guidetolerance="10"
     inkscape:pageopacity="0"
     inkscape:pageshadow="2"
     inkscape:window-width="1600"
     inkscape:window-height="844"
     id="namedview42"
     showgrid="false"
     inkscape:zoom="1"
     inkscape:cx="372.6379"
     inkscape:cy="175.15487"
     inkscape:window-x="-4"
     inkscape:window-y="-4"
     inkscape:window-maximized="1"
     inkscape:current-layer="svg2" />
  <g
     id="g4"
     transform="translate(-88.771172,-387.07637)">
    <g
       id="g6">
      <g
         id="g8">
        <path
           style="fill:#00a9c2;stroke:none"
           d="m 699.806,559.666 c 3.166,3.054 3.071,8.387 -0.583,12.541 -3.079,3.55 -22.729,4.495 -16.601,14.909 6.814,8.939 20.556,0.703 25.411,-2.933 6.551,-5.112 10.04,-13.049 10.221,-20.74 0.263,-11.145 -6.058,-18.881 -14.743,-22.642 -9.784,-4.238 -22.57,-3.522 -32.323,1.344 2.384,6.802 4.525,13.604 6.339,20.406 -0.075,0.056 3.418,-2.603 7.913,-4.158 4.289,-1.482 10.865,-2.105 14.366,1.273 z"
           id="path10"
           inkscape:connector-curvature="0" />
        <path
           style="fill:#00a9c2;stroke:none"
           d="m 665.408,529.9 c 18.849,-6.292 35.793,-5.566 47.713,-0.029 14.661,6.812 18.965,18.901 16.587,34.427 -1.61,10.506 -6.81,20.896 -15.324,27.321 -12.479,10.404 -29.732,16.414 -40.824,8.717 -0.82,-0.568 -1.711,-1.222 -2.379,-1.958 -1.238,4.978 -2.719,10.404 -4.684,16.401 15.412,4.529 36.198,-2.052 53.908,-18.201 10.013,-10.065 18.35,-23.346 20.735,-37.602 3.74,-22.355 -6.093,-38.637 -27.257,-46.04 -19.994,-6.995 -46.234,-5.433 -66.179,-3.599 l 0.065,0.069 c 6.442,6.586 12.127,13.426 17.534,20.357 l 0.105,0.137 z"
           id="path12"
           inkscape:connector-curvature="0" />
        <path
           style="fill:#f6b815;stroke:none"
           d="m 549.753,477.304 c -5.136,-7.622 -7.989,-16.361 -7.698,-26.061 -3.655,5.313 -5.439,6.31 -8.176,12.203 0.168,5.893 3.349,12.97 8.795,20.36 l 0.123,-0.122 c 2.044,-2.321 4.31,-4.421 6.823,-6.274 l 0.133,-0.106 z"
           id="path14"
           inkscape:connector-curvature="0" />
        <path
           style="fill:#f6b815;stroke:none"
           d="m 661.597,474.862 c 0.144,-2.053 2.667,-5.361 4.873,-8.046 4.041,-4.918 4.3,-7.078 11.834,-6.189 8.29,1.342 48.623,-0.81 75.323,38.331 -3.688,-35.477 -48.688,-56.672 -73.758,-59.101 -2.135,-0.096 -2.694,-1.384 -3.098,-3.378 l -1.307,-7.353 c -0.303,-1.704 -1.086,-3.624 -0.187,-5.215 2.053,-3.633 6.404,-2.1 10.183,-0.826 27.062,9.148 32.221,16.271 49.805,31.51 -10.701,-23.556 -36.238,-41.423 -56.156,-47.831 -17.111,-5.506 -30.367,-7.138 -39.858,-7.242 l -2.028,0 c -10.322,0.124 -15.634,2.058 -16.068,2.194 15.975,0.873 27.68,8.632 32.949,19.538 6.418,13.286 2.267,24.884 -5.85,36.104 -7.134,9.862 -15.853,14.827 -26.108,17.056 0.089,0.081 0.149,0.133 0.161,0.142 4.755,3.537 8.459,7.925 11.472,12.311 6.792,-5.337 16.234,-10.614 27.505,-11.998 0.021,-0.002 0.139,-0.005 0.313,-0.007 z m -89.562,-8.998 c -6.429,-6.127 -9.2,-14.71 -6.11,-25.074 4.932,-16.302 27.883,-24.71 45.435,-21.132 9.594,1.955 15.321,7.368 15.51,13.901 0.246,8.542 -7.408,15.804 -15.352,17.233 -8.245,1.484 -17.839,-0.8 -17.254,-6.444 1.01,-4.116 5.275,-5.053 8.757,-6.058 6.447,-1.861 7.103,-8.059 2.018,-9.569 -4.449,-1.32 -11.144,-0.077 -15.113,2.187 -3.963,2.26 -7.158,5.778 -8.944,9.577 -4.605,9.797 2.362,18.393 11.392,21.963 12.462,4.928 25.075,3.04 36.281,-4.199 4.248,-2.744 7.981,-6.279 10.418,-10.609 5.334,-9.48 2.797,-19.77 -4.643,-27.344 -7.379,-7.509 -18.967,-11.178 -30.221,-11.103 -16.462,0.112 -41.028,10.323 -47.537,34.321 -2.203,9.674 -0.393,18.889 4.345,26.915 l 0.115,-0.047 c 3.797,-1.371 7.364,-2.857 10.737,-4.439 l 0.166,-0.079 z"
           id="path16"
           inkscape:connector-curvature="0" />
        <path
           style="fill:#eb8521;stroke:none"
           d="m 620.656,535.265 c -13.818,-4.584 -30.78,-12.456 -45.44,-22.013 -13.744,-8.959 -25.197,-19.48 -32.536,-29.435 2.111,-2.415 4.458,-4.592 7.072,-6.504 12.977,19.256 40.552,31.362 68.953,33.666 0.298,5.619 0.748,20.719 1.951,24.286 z"
           id="path18"
           inkscape:connector-curvature="0" />
        <path
           style="fill:#df1c46;stroke:none"
           d="m 622.312,546.576 c 1.664,18.497 -2.417,32.639 0.859,42.984 1.585,5.003 5.06,9.031 11.934,12.129 1.766,4.067 4.403,8.159 8.213,12.193 9.965,10.549 19.321,12.776 21.011,14.821 -25.228,8.218 -34.422,-11.761 -44.351,-18.554 -2.028,-1.387 -12.825,6.018 -3.238,13.778 8.77,7.583 10.205,6.687 10.705,7.833 -20.26,2.871 -34.124,-6.539 -49.888,-14.525 -0.361,-0.872 3.249,0.763 10.893,-1.337 7.635,-2.55 11.503,-7.104 14.747,-11.964 13.192,-19.768 -5.123,-53.69 -29.555,-67.389 -12.73,-7.138 -35.895,-12.648 -42.272,5.403 -2.792,7.905 -2.418,17.644 -2.418,17.644 -2.505,-5.757 -3.75,-8.75 -5.237,-14.913 -1.998,-9.212 -2.594,-21.416 -1.84,-33.811 4.025,-7.871 8.66,-14.524 13.693,-20.379 9.535,13.122 25.496,28.372 43.713,39.028 14.625,8.554 27.015,12.956 43.031,17.059 z"
           id="path20"
           inkscape:connector-curvature="0" />
        <path
           style="fill:#df1c46;stroke:none"
           d="m 578.564,552.914 c -5.414,-4.689 -11.784,-8.433 -17.903,-10.198 -10.406,-3.002 -20.332,0.151 -20.778,12.266 -0.198,5.385 2.178,10.313 3.828,13.354 4.053,7.051 15.579,18.526 24.219,10.902 5.46,-7.555 -11.442,-10.659 -14.482,-15.501 -4.452,-5.236 -0.817,-10.053 5.334,-8.131 8.261,2.581 31.258,17.788 16.812,34.186 -13.901,12.718 -38.389,-13.015 -38.389,-13.015 4.342,7.104 9.364,13.742 14.97,19.741 4.461,4.265 9.232,6.841 14.02,8.018 13.037,3.202 27.592,-2.492 27.933,-17.827 0.301,-13.455 -5.563,-25.133 -15.564,-33.795 z"
           id="path22"
           inkscape:connector-curvature="0" />
        <path
           style="fill:#2c2c2b;stroke:none"
           d="m 277.025,470.838 c 6.153,3.094 12.191,7.616 12.191,15.352 0,9.521 -5.457,14.995 -16.72,14.995 -5.805,0 -11.262,-1.547 -16.487,-4.046 -0.464,-0.238 -1.045,-0.357 -1.625,-0.357 -2.206,0 -3.948,1.785 -3.948,3.927 0,1.547 0.929,3.094 2.323,3.69 6.153,2.737 12.771,4.522 19.737,4.522 13.353,0 24.847,-7.974 24.847,-22.731 0,-12.853 -8.011,-18.327 -16.835,-22.731 l -12.656,-6.307 c -6.154,-3.094 -9.288,-7.022 -9.288,-12.972 0,-9.997 8.708,-13.329 16.139,-13.329 6.269,0 11.146,1.547 15.79,3.57 0.464,0.238 1.161,0.358 1.625,0.358 2.206,0 3.948,-1.905 3.948,-3.928 0,-1.666 -0.929,-3.213 -2.554,-3.808 -5.341,-2.261 -11.03,-3.927 -18.809,-3.927 -13.005,0 -24.267,7.735 -24.267,20.826 0,11.425 5.341,16.304 13.933,20.589 l 12.656,6.307 z m 67.109,9.64 c 3.019,0 5.457,-2.499 5.457,-5.594 l 0,-6.188 c 0,-12.972 -8.475,-21.779 -21.131,-21.779 -12.772,0 -21.248,8.807 -21.248,21.779 l 0,18.446 c 0,12.972 8.476,21.779 21.248,21.779 5.805,0 11.378,-1.19 16.603,-3.808 1.393,-0.714 2.206,-2.024 2.206,-3.571 0,-2.142 -1.741,-3.808 -3.947,-3.808 -0.581,0 -1.046,0.119 -1.626,0.357 -4.18,1.904 -8.592,3.332 -13.236,3.332 -8.36,0 -13.352,-5.712 -13.352,-14.281 l 0,-6.664 29.026,0 z m -2.438,-7.498 -26.588,0 0,-4.879 c 0,-8.569 4.992,-13.686 13.352,-13.686 8.243,0 13.236,5.117 13.236,13.686 l 0,4.879 z m 56.312,31.894 c 0,2.262 1.741,4.047 3.947,4.047 2.206,0 3.948,-1.785 3.948,-4.047 l 0,-36.178 c 0,-12.972 -8.476,-21.779 -21.131,-21.779 -6.154,0 -12.075,0.952 -17.533,2.976 -2.206,0.833 -3.715,2.856 -3.715,5.236 l 0,49.745 c 0,2.262 1.742,4.047 3.948,4.047 2.206,0 3.947,-1.785 3.947,-4.047 l 0,-48.436 c 4.18,-1.309 8.708,-2.023 13.353,-2.023 8.243,0 13.236,5.117 13.236,13.686 l 0,36.773 z m 2.09,-75.57 c 0.58,-0.714 0.812,-1.547 0.812,-2.38 0,-2.261 -1.741,-3.808 -3.715,-3.808 -1.161,0 -2.09,0.476 -3.019,1.547 -1.045,1.19 -2.786,2.142 -4.412,2.142 -1.045,0 -2.09,-0.476 -3.019,-1.071 -2.438,-1.547 -4.992,-2.618 -7.779,-2.618 -4.063,0 -7.895,1.666 -10.333,4.998 -0.465,0.714 -0.813,1.666 -0.813,2.499 0,2.261 1.742,3.808 3.715,3.808 1.162,0 2.09,-0.476 3.019,-1.547 1.045,-1.309 2.787,-2.142 4.412,-2.142 1.161,0 2.09,0.476 3.019,1.071 2.438,1.666 4.993,2.618 7.779,2.618 4.064,0 7.895,-1.785 10.334,-5.117 z m 60.375,35.703 c 0,-12.139 -9.288,-18.09 -20.202,-18.09 -5.69,0 -11.727,1.309 -17.184,4.761 -1.277,0.833 -1.974,2.142 -1.974,3.57 0,2.38 1.858,3.808 3.948,3.808 0.697,0 1.277,-0.238 1.857,-0.595 4.412,-2.618 8.708,-4.046 13.353,-4.046 7.314,0 12.307,3.689 12.307,10.711 l 0,7.497 -13.236,0 c -7.083,0 -12.54,1.428 -16.139,4.761 -3.367,3.213 -5.109,7.616 -5.109,13.21 0,5.593 1.742,10.115 5.109,13.209 3.599,3.333 9.056,5.118 16.139,5.118 6.037,0 11.843,-1.071 17.416,-2.976 2.206,-0.714 3.715,-2.856 3.715,-5.236 l 0,-35.702 z m -7.895,34.393 c -4.18,1.309 -8.708,2.023 -13.236,2.023 -11.843,0 -13.353,-6.069 -13.353,-10.829 0,-4.761 1.51,-10.473 13.353,-10.473 l 13.236,0 0,19.279 z m 24.15,5.474 c 0,2.262 1.742,4.047 3.948,4.047 2.206,0 3.948,-1.785 3.948,-4.047 l 0,-77.712 c 0,-2.261 -1.742,-4.046 -3.948,-4.046 -2.206,0 -3.948,1.785 -3.948,4.046 l 0,77.712 z"
           id="path24"
           inkscape:connector-curvature="0" />
        <path
           style="fill:#2c2c2b;stroke:none"
           d="m 96.7672,577.401 c 0,18.447 11.2488,30.824 27.9068,30.824 5.841,0 11.466,-1.905 16.658,-5.594 1.622,-1.19 2.596,-3.213 2.596,-5.236 0,-3.451 -2.596,-5.951 -5.517,-5.951 -1.081,0 -2.163,0.357 -3.137,1.072 -3.461,2.38 -6.922,4.046 -10.6,4.046 -10.492,0 -16.441,-7.617 -16.441,-19.161 l 0,-24.158 c 0,-11.544 5.949,-19.161 16.441,-19.161 3.678,0 7.247,1.547 10.709,3.928 0.973,0.594 1.947,0.952 2.92,0.952 3.137,0 5.625,-2.619 5.625,-5.832 0,-2.023 -0.974,-3.927 -2.596,-5.117 -5.192,-3.689 -10.817,-5.593 -16.658,-5.593 -16.658,0 -27.9068,12.376 -27.9068,30.823 l 0,24.158 z m 98.4858,-6.902 c 0,-7.26 -2.163,-13.567 -6.274,-18.089 -4.11,-4.523 -9.843,-6.903 -16.441,-6.903 -6.598,0 -12.331,2.38 -16.441,6.903 -4.111,4.522 -6.274,10.829 -6.274,18.089 l 0,12.734 c 0,7.259 2.163,13.567 6.274,18.089 4.11,4.523 9.843,6.903 16.441,6.903 6.598,0 12.331,-2.38 16.441,-6.903 4.111,-4.522 6.274,-10.83 6.274,-18.089 l 0,-12.734 z m -11.141,13.805 c 0,7.973 -4.219,12.615 -11.574,12.615 -7.355,0 -11.574,-4.642 -11.574,-12.615 l 0,-14.757 c 0,-8.093 4.219,-12.734 11.574,-12.734 7.139,0 11.574,5.236 11.574,12.734 l 0,14.757 z m 21.471,17.732 c 0,3.451 2.488,6.189 5.624,6.189 3.029,0 5.517,-2.738 5.517,-6.189 l 0,-73.428 c 0,-3.451 -2.488,-6.188 -5.517,-6.188 -3.136,0 -5.624,2.737 -5.624,6.188 l 0,73.428 z m 66.901,-31.537 c 0,-7.26 -2.163,-13.567 -6.274,-18.089 -4.11,-4.523 -9.843,-6.903 -16.441,-6.903 -6.598,0 -12.331,2.38 -16.441,6.903 -4.111,4.522 -6.274,10.829 -6.274,18.089 l 0,12.734 c 0,7.259 2.163,13.567 6.274,18.089 4.11,4.523 9.843,6.903 16.441,6.903 6.598,0 12.331,-2.38 16.441,-6.903 4.111,-4.522 6.274,-10.83 6.274,-18.089 l 0,-12.734 z m -11.141,13.805 c 0,7.973 -4.219,12.615 -11.574,12.615 -7.355,0 -11.574,-4.642 -11.574,-12.615 l 0,-14.757 c 0,-8.093 4.219,-12.734 11.574,-12.734 7.139,0 11.574,5.236 11.574,12.734 l 0,14.757 z m 80.422,17.732 c 0,3.451 2.38,6.189 5.517,6.189 3.136,0 5.624,-2.738 5.624,-6.189 l 0,-34.036 c 0,-12.853 -8.761,-22.493 -20.443,-22.493 -5.409,0 -10.709,1.666 -15.144,4.879 -3.353,-3.094 -7.896,-4.879 -13.088,-4.879 -6.273,0 -11.79,1.071 -17.415,3.451 -2.704,1.19 -4.543,4.047 -4.543,7.26 l 0,45.818 c 0,3.451 2.488,6.189 5.625,6.189 3.029,0 5.516,-2.738 5.516,-6.189 l 0,-43.557 c 3.462,-1.071 5.842,-1.666 9.735,-1.666 4.76,0 8.87,1.785 8.87,8.687 l 0,36.536 c 0,3.451 2.488,6.189 5.517,6.189 3.136,0 5.624,-2.738 5.624,-6.189 l 0,-42.129 c 2.705,-1.904 5.949,-3.094 9.303,-3.094 5.083,0 9.302,4.641 9.302,10.235 l 0,34.988 z m 65.82,-32.727 c 0,-6.903 -2.056,-13.091 -5.95,-17.375 -3.894,-4.404 -8.653,-6.427 -15.035,-6.427 -3.569,0 -7.896,1.428 -11.249,3.094 l 0,-19.993 c 0,-3.451 -2.488,-6.188 -5.517,-6.188 -3.137,0 -5.624,2.737 -5.624,6.188 l 0,69.263 c 0,3.332 1.947,6.188 4.759,7.259 5.408,2.024 11.033,3.095 16.874,3.095 6.382,0 11.79,-2.262 15.684,-6.665 3.894,-4.284 6.058,-10.234 6.058,-17.256 l 0,-14.995 z m -11.142,16.066 c 0,7.379 -3.894,11.544 -10.6,11.544 -3.57,0 -7.031,-0.476 -10.492,-1.428 l 0,-34.394 c 3.029,-2.737 6.598,-4.284 10.492,-4.284 6.706,0 10.6,4.284 10.6,11.544 l 0,17.018 z m 34.019,-56.053 c 0,-3.808 -2.812,-6.902 -6.274,-6.902 -3.461,0 -6.273,3.094 -6.273,6.902 0,3.808 2.812,6.903 6.273,6.903 3.462,0 6.274,-3.095 6.274,-6.903 z m -11.898,72.714 c 0,3.451 2.596,6.189 5.624,6.189 3.137,0 5.517,-2.738 5.517,-6.189 l 0,-50.341 c 0,-3.451 -2.38,-6.188 -5.517,-6.188 -3.028,0 -5.624,2.737 -5.624,6.188 l 0,50.341 z m 64.088,-36.297 c 0,-10.592 -6.598,-20.232 -18.712,-20.232 -7.788,0 -12.872,1.071 -18.713,4.76 -1.839,1.191 -2.705,3.333 -2.705,5.475 0,2.975 2.38,5.355 5.301,5.355 0.973,0 2.163,-0.476 3.029,-1.071 3.785,-2.499 6.598,-3.213 11.681,-3.213 5.625,0 8.978,3.927 8.978,8.926 l 0,4.165 -11.141,0 c -6.598,0 -11.79,1.785 -15.468,5.236 -3.677,3.332 -5.625,7.855 -5.625,13.686 0,5.832 1.948,10.711 5.625,14.162 3.678,3.452 8.87,5.237 15.468,5.237 6.057,0 12.223,-1.071 17.523,-3.095 2.812,-1.071 4.759,-3.927 4.759,-7.259 l 0,-32.132 z m -11.141,29.633 c -3.461,0.952 -7.463,1.547 -11.141,1.547 -9.41,0 -9.951,-5.951 -9.951,-8.093 0,-2.023 0.541,-7.616 9.951,-7.616 l 11.141,0 0,14.162 z"
           id="path26"
           inkscape:connector-curvature="0" />
        <path
           style="fill:#00a9c2;stroke:none"
           d="m 661.598,474.832 c -11.41,1.323 -20.964,6.649 -27.819,12.035 2.89,4.205 5.144,8.409 7.081,11.86 17.16,-0.463 37.179,-1.554 57.089,-1.275 29.376,0.414 47.778,12.005 52.897,35.586 6.956,-17.055 -11.621,-41.525 -31.08,-48.363 -13.733,-5.172 -38.58,-6.562 -53.465,-6.991 -3.618,-0.378 -4.837,-1.165 -4.703,-2.852 z"
           id="path28"
           inkscape:connector-curvature="0" />
        <path
           style="fill:#eb8521;stroke:none"
           d="m 622.125,474.421 c 4.843,3.56 8.603,8.004 11.654,12.446 -2.515,1.938 -8.249,7.063 -10.671,11.879 l -0.06,0.134 c -3.806,-0.073 -7.345,-0.239 -10.562,-0.534 -22.791,-1.643 -42.448,-12.627 -51.473,-27.921 3.904,-1.405 7.563,-2.932 11.02,-4.56 11.965,11.403 34.841,11.867 50.092,8.556 z"
           id="path30"
           inkscape:connector-curvature="0" />
        <path
           style="fill:#0079b8;stroke:none"
           d="m 647.701,509.337 c 6.512,6.65 12.249,13.559 17.707,20.56 -6.502,2.17 -12.568,5.178 -20.058,9.109 -4.074,1.578 -13.319,0.031 -24.695,-3.743 -1.202,-3.568 -1.652,-18.665 -1.95,-24.284 1.201,0.098 2.403,0.177 3.605,0.24 5.016,0.259 14.215,-0.855 25.391,-1.882 z"
           id="path32"
           inkscape:connector-curvature="0" />
        <path
           style="fill:#0079b8;stroke:none"
           d="m 671.188,542.142 c 2.383,6.803 4.525,13.606 6.339,20.409 -5.075,3.802 -9.476,9.528 -11.244,16.703 -1.604,6.506 -1.338,11.162 2.67,16.572 0.697,0.941 1.441,1.79 2.228,2.552 -1.238,4.979 -2.72,10.405 -4.685,16.404 -1.451,-0.426 -2.854,-0.951 -4.203,-1.576 -15.954,-7 -23.192,-30.676 -10.844,-52.855 5.408,-8.387 12.304,-14.5 19.739,-18.209 z"
           id="path34"
           inkscape:connector-curvature="0" />
        <path
           style="fill:#0079b8;stroke:none"
           d="m 640.812,498.728 0.049,0 c -1.937,-3.45 -4.191,-7.652 -7.077,-11.855 -10e-4,-10e-4 -0.003,-0.004 -0.005,-0.006 -2.539,1.956 -8.356,7.158 -10.738,12.013 5.427,0.105 11.402,0.018 17.771,-0.152 z"
           id="path36"
           inkscape:connector-curvature="0" />
        <path
           style="fill:#f6b815;stroke:none"
           d="m 535.568,490.489 c -3.57,-4.912 -6.238,-9.528 -7.787,-13.493 -3.195,9.794 -5.179,21.922 -5.905,33.872 4.025,-7.871 8.659,-14.524 13.692,-20.379 z"
           id="path38"
           inkscape:connector-curvature="0" />
        <path
           style="fill:#0079b8;stroke:none"
           d="m 635.105,601.689 c -0.016,-0.037 -0.103,-0.24 -0.119,-0.277 -10.632,-25.022 11.396,-49.056 -4.882,-52.921 -2.701,-0.642 -5.291,-1.275 -7.792,-1.915 1.664,18.497 -2.417,32.639 0.859,42.984 1.585,5.003 5.06,9.031 11.934,12.129 z"
           id="path40"
           inkscape:connector-curvature="0" />
      </g>
    </g>
  </g>
</svg>
