<?xml version="1.0" encoding="UTF-8" ?>
<!DOCTYPE svg PUBLIC "-//W3C//DTD SVG 1.1//EN" "http://www.w3.org/Graphics/SVG/1.1/DTD/svg11.dtd">
<svg width="266pt" height="210.75pt" viewBox="0 0 675 535" version="1.1" xmlns="http://www.w3.org/2000/svg">
<g id="#fed105ff">
<path fill="#fed105" opacity="1.00" d=" M 0.00 0.00 L 0.06 0.00 C 0.05 0.02 0.02 0.05 0.00 0.06 L 0.00 0.00 Z" />
<path fill="#fed105" opacity="1.00" d=" M 240.30 11.44 C 263.07 10.31 285.99 11.81 308.28 16.66 C 349.10 25.35 387.68 44.43 419.30 71.69 C 466.18 111.46 497.54 169.09 505.28 230.05 C 513.04 286.82 500.52 346.02 470.52 394.84 C 451.00 426.62 424.46 454.07 393.21 474.44 C 351.64 501.74 301.76 516.38 252.01 515.30 C 226.01 515.41 200.17 510.65 175.50 502.60 C 133.47 488.63 95.29 463.28 66.06 430.00 C 26.41 385.22 3.29 325.88 3.27 266.01 C 2.29 219.02 15.47 171.97 39.94 131.88 C 54.78 107.60 73.75 85.85 95.81 67.87 C 136.42 34.42 187.83 14.53 240.30 11.44 M 309.48 202.09 C 309.43 211.36 309.52 220.63 309.43 229.90 C 303.80 223.80 295.41 220.12 287.08 220.62 C 277.72 220.70 268.96 226.14 263.65 233.66 C 258.91 240.54 255.99 248.72 255.58 257.09 C 254.83 269.87 256.28 283.47 263.48 294.41 C 268.87 302.88 278.90 308.12 288.94 307.62 C 297.59 307.93 305.81 303.34 311.38 296.94 C 311.74 299.91 312.05 302.89 312.34 305.87 C 318.03 305.80 323.73 305.84 329.43 305.84 C 329.44 271.27 329.44 236.69 329.43 202.11 C 322.78 202.12 316.13 202.15 309.48 202.09 M 20.81 224.63 C 8.11 231.25 5.22 250.54 15.24 260.68 C 21.91 267.76 31.68 270.12 40.43 273.56 C 43.81 274.96 47.45 276.36 49.83 279.28 C 51.50 281.55 51.36 284.70 50.25 287.18 C 47.62 291.69 41.85 293.36 36.91 292.59 C 29.64 291.44 23.96 286.21 19.64 280.57 C 15.28 284.11 10.64 287.28 6.16 290.66 C 10.46 296.75 16.15 302.07 23.15 304.86 C 34.31 309.09 47.52 308.77 58.11 303.07 C 71.47 295.53 72.82 274.49 61.55 264.53 C 53.93 257.59 43.44 255.70 34.27 251.66 C 30.83 250.07 26.73 247.36 27.34 242.98 C 27.25 237.98 32.80 235.57 37.06 235.49 C 43.87 235.06 49.51 239.77 53.97 244.36 C 58.26 240.70 62.57 237.06 66.75 233.27 C 55.71 220.69 35.60 216.57 20.81 224.63 M 190.30 230.90 C 190.35 228.02 190.36 225.15 190.37 222.28 C 184.17 222.29 177.98 222.33 171.78 222.26 C 171.69 250.12 171.77 277.98 171.75 305.84 C 178.42 305.82 185.09 305.84 191.77 305.83 C 191.73 286.55 191.77 267.27 191.74 247.99 C 191.39 244.87 194.36 243.04 196.54 241.47 C 201.91 237.67 209.02 235.56 215.44 237.73 C 220.10 240.32 220.40 246.19 220.65 250.92 C 220.64 269.22 220.64 287.53 220.64 305.83 C 227.36 305.84 234.07 305.83 240.79 305.84 C 240.76 286.24 240.81 266.64 240.76 247.04 C 240.62 239.06 238.29 230.37 231.75 225.25 C 225.67 220.42 217.42 219.94 210.03 221.07 C 202.76 222.70 196.41 226.81 190.30 230.90 M 350.34 235.99 C 354.65 239.26 359.05 242.42 363.24 245.85 C 366.32 242.39 369.42 238.59 373.96 237.02 C 379.67 234.63 387.28 234.63 391.77 239.42 C 395.24 242.77 393.43 248.03 393.87 252.28 C 385.51 253.72 377.00 254.71 369.00 257.69 C 362.03 260.07 355.18 263.74 350.71 269.76 C 345.21 277.39 344.14 288.08 348.57 296.47 C 352.12 303.62 360.14 307.87 368.01 307.61 C 377.58 308.12 386.94 304.53 394.59 298.96 C 395.31 301.18 395.73 303.47 396.05 305.79 C 402.51 305.92 408.97 305.73 415.44 305.91 C 413.79 298.70 414.43 291.29 414.31 283.98 C 414.25 273.00 414.43 262.01 414.22 251.04 C 413.44 242.69 412.43 233.22 405.60 227.43 C 397.26 220.28 385.38 220.12 374.99 220.95 C 365.44 222.84 355.54 227.36 350.34 235.99 M 452.39 231.13 C 452.33 228.18 452.33 225.24 452.35 222.29 C 446.15 222.29 439.95 222.31 433.75 222.28 C 433.72 250.13 433.75 277.99 433.74 305.84 C 440.53 305.80 447.32 305.89 454.10 305.79 C 454.17 285.88 453.99 265.96 454.19 246.06 C 459.02 239.18 468.64 235.40 476.93 237.49 C 481.35 239.25 482.72 244.58 482.73 248.91 C 482.80 267.89 482.74 286.86 482.76 305.83 C 489.61 305.83 496.45 305.84 503.30 305.82 C 502.94 286.21 503.27 266.58 503.10 246.97 C 502.91 240.27 501.29 233.26 496.85 228.04 C 492.52 222.92 485.64 220.42 479.03 220.60 C 469.06 220.06 460.17 225.54 452.39 231.13 M 83.75 222.35 C 83.83 241.92 83.76 261.50 83.79 281.07 C 83.92 287.75 85.51 294.81 89.93 300.01 C 94.25 305.31 101.30 307.75 107.99 307.61 C 117.90 308.01 126.78 302.63 134.52 297.03 C 134.55 299.97 134.56 302.92 134.56 305.87 C 140.77 305.80 146.98 305.86 153.19 305.82 C 153.21 278.00 153.13 250.18 153.23 222.36 C 146.43 222.22 139.62 222.31 132.82 222.31 C 132.83 242.38 132.80 262.44 132.83 282.51 C 127.39 288.49 119.17 292.58 110.96 291.00 C 106.13 289.98 104.19 284.45 104.19 280.04 C 104.12 260.80 104.17 241.56 104.16 222.32 C 97.36 222.29 90.56 222.25 83.75 222.35 M 37.63 317.90 C 37.59 321.03 37.59 324.15 37.60 327.28 C 40.76 327.29 43.93 327.29 47.09 327.26 C 46.89 324.32 47.64 321.07 46.71 318.32 C 43.96 317.31 40.61 318.14 37.63 317.90 M 153.37 317.88 C 153.32 321.02 153.31 324.16 153.33 327.29 C 156.39 327.28 159.45 327.28 162.51 327.29 C 162.52 324.15 162.52 321.02 162.48 317.89 C 159.44 317.89 156.41 317.89 153.37 317.88 M 129.78 321.40 C 129.83 325.65 129.84 329.90 129.76 334.15 C 128.04 334.12 126.33 334.11 124.62 334.09 C 124.61 336.69 124.61 339.29 124.62 341.90 C 126.35 341.88 128.08 341.87 129.81 341.86 C 129.88 349.60 129.69 357.34 129.88 365.08 C 130.29 367.81 130.62 371.24 133.32 372.76 C 137.54 375.33 142.78 374.63 147.36 373.55 C 147.33 370.89 147.31 368.24 147.31 365.58 C 145.38 366.46 143.28 366.65 141.19 366.76 C 140.55 365.84 139.42 365.10 139.52 363.86 C 139.41 356.53 139.50 349.19 139.51 341.85 C 142.11 341.86 144.71 341.87 147.32 341.89 C 147.33 339.29 147.33 336.70 147.32 334.11 C 144.72 334.12 142.12 334.12 139.51 334.13 C 139.47 329.84 139.49 325.56 139.48 321.28 C 136.25 321.27 133.01 321.28 129.78 321.40 M 172.95 321.42 C 173.38 325.50 173.13 329.60 173.29 333.70 C 171.45 334.01 169.59 334.14 167.73 334.19 C 167.72 336.73 167.72 339.27 167.72 341.82 C 169.57 341.87 171.42 341.98 173.27 342.16 C 173.13 349.45 173.24 356.75 173.19 364.05 C 173.21 367.13 173.46 370.93 176.37 372.74 C 180.59 375.33 185.90 374.70 190.49 373.54 C 190.44 370.87 190.41 368.20 190.37 365.53 C 188.49 366.51 186.39 366.65 184.33 366.76 C 181.93 364.83 182.68 361.64 182.58 358.96 C 182.62 353.26 182.58 347.56 182.60 341.86 C 185.20 341.86 187.81 341.87 190.42 341.90 C 190.42 339.31 190.43 336.72 190.46 334.14 C 187.84 334.12 185.23 334.12 182.62 334.13 C 182.58 329.84 182.60 325.56 182.59 321.27 C 179.37 321.27 176.16 321.27 172.95 321.42 M 237.46 321.27 C 237.45 325.55 237.47 329.84 237.42 334.13 C 235.54 334.12 233.66 334.12 231.78 334.12 C 231.77 336.70 231.77 339.28 231.76 341.86 C 233.66 341.86 235.55 341.86 237.45 341.87 C 237.51 350.24 237.36 358.62 237.50 367.00 C 237.45 369.41 238.72 371.81 240.88 372.96 C 245.05 375.28 250.09 374.61 254.54 373.60 C 254.49 370.91 254.46 368.23 254.43 365.55 C 252.54 366.52 250.43 366.68 248.34 366.68 C 247.76 365.94 247.18 365.21 246.60 364.49 C 246.69 356.95 246.62 349.41 246.65 341.86 C 249.25 341.86 251.86 341.87 254.48 341.90 C 254.48 339.29 254.48 336.69 254.47 334.09 C 251.87 334.12 249.26 334.12 246.66 334.13 C 246.63 329.84 246.64 325.56 246.65 321.27 C 243.59 321.29 240.52 321.29 237.46 321.27 M 37.60 334.12 C 37.58 347.26 37.63 360.40 37.58 373.54 C 40.73 373.55 43.88 373.56 47.03 373.55 C 47.20 360.43 47.06 347.30 47.11 334.18 C 43.94 334.11 40.77 334.11 37.60 334.12 M 55.76 334.33 C 55.87 347.37 55.81 360.42 55.79 373.47 C 59.03 373.56 62.27 373.57 65.51 373.57 C 65.49 364.04 65.49 354.52 65.51 345.00 C 68.59 342.22 73.05 340.25 77.14 341.91 C 78.65 343.52 79.25 345.76 79.14 347.95 C 79.11 356.48 79.15 365.01 79.11 373.55 C 82.30 373.55 85.49 373.55 88.68 373.55 C 88.60 364.66 88.69 355.78 88.64 346.90 C 88.59 342.19 87.24 336.71 82.63 334.48 C 76.51 331.96 69.83 334.34 64.84 338.15 C 64.86 336.80 64.87 335.46 64.89 334.12 C 61.84 334.08 58.80 334.08 55.76 334.33 M 100.93 334.79 C 95.19 337.48 92.66 345.30 96.27 350.66 C 100.05 356.68 108.21 356.61 113.39 360.71 C 115.68 362.41 113.74 365.17 112.27 366.68 C 107.19 368.60 102.62 365.26 99.50 361.56 C 97.47 363.17 95.40 364.71 93.24 366.15 C 97.79 373.85 108.17 376.47 116.18 372.95 C 123.80 370.29 125.17 358.80 119.17 353.82 C 115.13 350.21 109.40 349.82 104.93 347.01 C 102.91 346.06 103.57 343.69 103.71 341.95 C 107.87 338.84 112.79 341.40 115.85 344.74 C 117.93 342.97 119.96 341.14 121.95 339.27 C 116.68 333.65 108.01 331.92 100.93 334.79 M 153.33 334.09 C 153.32 347.25 153.33 360.41 153.33 373.58 C 156.39 373.55 159.46 373.55 162.53 373.57 C 162.50 360.41 162.54 347.25 162.50 334.09 C 159.45 334.13 156.39 334.13 153.33 334.09 M 195.18 334.11 C 195.20 343.07 195.16 352.03 195.19 361.00 C 195.27 366.00 197.13 372.14 202.50 373.69 C 208.36 376.03 214.49 372.83 219.11 369.31 C 219.05 370.72 219.00 372.13 218.94 373.55 C 221.85 373.55 224.77 373.55 227.68 373.57 C 227.68 360.41 227.69 347.25 227.68 334.09 C 224.51 334.12 221.35 334.13 218.19 334.13 C 218.27 343.52 218.09 352.91 218.29 362.30 C 215.76 365.39 211.77 366.95 207.81 366.67 C 206.99 365.91 206.17 365.16 205.35 364.42 C 204.19 354.37 205.11 344.20 204.82 334.10 C 201.61 334.13 198.39 334.13 195.18 334.11 M 264.67 335.63 C 259.93 338.42 257.59 343.81 256.64 349.01 C 255.82 355.68 256.46 362.98 260.64 368.50 C 267.71 377.84 283.98 375.83 289.80 366.08 C 287.38 364.67 285.00 363.17 282.43 362.06 C 279.73 365.91 273.91 368.41 269.79 365.25 C 266.40 363.14 266.26 358.85 266.03 355.32 C 273.88 355.28 281.73 355.30 289.58 355.31 C 289.50 351.17 289.87 346.78 287.97 342.96 C 285.94 338.12 281.40 333.99 276.02 333.61 C 272.17 333.32 267.97 333.39 264.67 335.63 Z" />
<path fill="#fed105" opacity="1.00" d=" M 278.21 247.46 C 280.46 241.81 285.76 237.31 291.97 236.98 C 298.61 236.10 304.83 239.52 309.48 243.97 C 309.44 257.29 309.50 270.60 309.45 283.92 C 306.28 286.55 303.21 289.63 299.11 290.73 C 293.33 292.15 286.56 291.23 282.27 286.80 C 277.79 282.38 276.52 275.96 275.55 270.00 C 274.80 262.42 275.44 254.59 278.21 247.46 Z" />
<path fill="#fed105" opacity="1.00" d=" M 369.64 274.61 C 376.27 268.74 385.57 267.98 393.83 265.99 C 393.90 272.01 393.83 278.03 393.88 284.06 C 387.67 288.35 380.64 294.01 372.59 292.36 C 365.07 290.04 364.09 279.45 369.64 274.61 Z" />
<path fill="#fed105" opacity="1.00" d=" M 265.95 348.75 C 265.76 344.28 269.38 339.99 274.04 340.47 C 278.27 340.80 280.65 344.90 281.01 348.77 C 275.99 348.81 270.97 348.82 265.95 348.75 Z" />
</g>
<g id="#050708ff">
<path fill="#050708" opacity="1.00" d=" M 309.48 202.09 C 316.13 202.15 322.78 202.12 329.43 202.11 C 329.44 236.69 329.44 271.27 329.43 305.84 C 323.73 305.84 318.03 305.80 312.34 305.87 C 312.05 302.89 311.74 299.91 311.38 296.94 C 305.81 303.34 297.59 307.93 288.94 307.62 C 278.90 308.12 268.87 302.88 263.48 294.41 C 256.28 283.47 254.83 269.87 255.58 257.09 C 255.99 248.72 258.91 240.54 263.65 233.66 C 268.96 226.14 277.72 220.70 287.08 220.62 C 295.41 220.12 303.80 223.80 309.43 229.90 C 309.52 220.63 309.43 211.36 309.48 202.09 M 278.21 247.46 C 275.44 254.59 274.80 262.42 275.55 270.00 C 276.52 275.96 277.79 282.38 282.27 286.80 C 286.56 291.23 293.33 292.15 299.11 290.73 C 303.21 289.63 306.28 286.55 309.45 283.92 C 309.50 270.60 309.44 257.29 309.48 243.97 C 304.83 239.52 298.61 236.10 291.97 236.98 C 285.76 237.31 280.46 241.81 278.21 247.46 Z" />
<path fill="#050708" opacity="1.00" d=" M 20.81 224.63 C 35.60 216.57 55.71 220.69 66.75 233.27 C 62.57 237.06 58.26 240.70 53.97 244.36 C 49.51 239.77 43.87 235.06 37.06 235.49 C 32.80 235.57 27.25 237.98 27.34 242.98 C 26.73 247.36 30.83 250.07 34.27 251.66 C 43.44 255.70 53.93 257.59 61.55 264.53 C 72.82 274.49 71.47 295.53 58.11 303.07 C 47.52 308.77 34.31 309.09 23.15 304.86 C 16.15 302.07 10.46 296.75 6.16 290.66 C 10.64 287.28 15.28 284.11 19.64 280.57 C 23.96 286.21 29.64 291.44 36.91 292.59 C 41.85 293.36 47.62 291.69 50.25 287.18 C 51.36 284.70 51.50 281.55 49.83 279.28 C 47.45 276.36 43.81 274.96 40.43 273.56 C 31.68 270.12 21.91 267.76 15.24 260.68 C 5.22 250.54 8.11 231.25 20.81 224.63 Z" />
<path fill="#050708" opacity="1.00" d=" M 190.30 230.90 C 196.41 226.81 202.76 222.70 210.03 221.07 C 217.42 219.94 225.67 220.42 231.75 225.25 C 238.29 230.37 240.62 239.06 240.76 247.04 C 240.81 266.64 240.76 286.24 240.79 305.84 C 234.07 305.83 227.36 305.84 220.64 305.83 C 220.64 287.53 220.64 269.22 220.65 250.92 C 220.40 246.19 220.10 240.32 215.44 237.73 C 209.02 235.56 201.91 237.67 196.54 241.47 C 194.36 243.04 191.39 244.87 191.74 247.99 C 191.77 267.27 191.73 286.55 191.77 305.83 C 185.09 305.84 178.42 305.82 171.75 305.84 C 171.77 277.98 171.69 250.12 171.78 222.26 C 177.98 222.33 184.17 222.29 190.37 222.28 C 190.36 225.15 190.35 228.02 190.30 230.90 Z" />
<path fill="#050708" opacity="1.00" d=" M 350.34 235.99 C 355.54 227.36 365.44 222.84 374.99 220.95 C 385.38 220.12 397.26 220.28 405.60 227.43 C 412.43 233.22 413.44 242.69 414.22 251.04 C 414.43 262.01 414.25 273.00 414.31 283.98 C 414.43 291.29 413.79 298.70 415.44 305.91 C 408.97 305.73 402.51 305.92 396.05 305.79 C 395.73 303.47 395.31 301.18 394.59 298.96 C 386.94 304.53 377.58 308.12 368.01 307.61 C 360.14 307.87 352.12 303.62 348.57 296.47 C 344.14 288.08 345.21 277.39 350.71 269.76 C 355.18 263.74 362.03 260.07 369.00 257.69 C 377.00 254.71 385.51 253.72 393.87 252.28 C 393.43 248.03 395.24 242.77 391.77 239.42 C 387.28 234.63 379.67 234.63 373.96 237.02 C 369.42 238.59 366.32 242.39 363.24 245.85 C 359.05 242.42 354.65 239.26 350.34 235.99 M 369.64 274.61 C 364.09 279.45 365.07 290.04 372.59 292.36 C 380.64 294.01 387.67 288.35 393.88 284.06 C 393.83 278.03 393.90 272.01 393.83 265.99 C 385.57 267.98 376.27 268.74 369.64 274.61 Z" />
<path fill="#050708" opacity="1.00" d=" M 452.39 231.13 C 460.17 225.54 469.06 220.06 479.03 220.60 C 485.64 220.42 492.52 222.92 496.85 228.04 C 501.29 233.26 502.91 240.27 503.10 246.97 C 503.27 266.58 502.94 286.21 503.30 305.82 C 496.45 305.84 489.61 305.83 482.76 305.83 C 482.74 286.86 482.80 267.89 482.73 248.91 C 482.72 244.58 481.35 239.25 476.93 237.49 C 468.64 235.40 459.02 239.18 454.19 246.06 C 453.99 265.96 454.17 285.88 454.10 305.79 C 447.32 305.89 440.53 305.80 433.74 305.84 C 433.75 277.99 433.72 250.13 433.75 222.28 C 439.95 222.31 446.15 222.29 452.35 222.29 C 452.33 225.24 452.33 228.18 452.39 231.13 Z" />
<path fill="#050708" opacity="1.00" d=" M 532.00 227.28 C 541.00 220.28 553.38 219.21 564.16 221.87 C 574.62 224.56 583.52 232.64 586.61 243.08 C 581.05 245.27 575.35 247.16 569.92 249.65 C 567.90 244.84 565.03 239.72 559.84 237.84 C 555.75 236.54 551.10 236.38 547.10 238.06 C 541.84 240.42 539.25 246.16 538.25 251.52 C 536.91 260.23 536.88 269.20 538.51 277.88 C 539.59 282.04 541.46 286.40 545.18 288.85 C 549.10 291.64 554.31 291.81 558.86 290.75 C 564.95 288.90 569.02 283.44 571.78 277.99 C 576.95 280.76 582.05 283.69 587.08 286.72 C 582.49 295.54 575.29 303.70 565.32 306.24 C 554.89 308.86 543.01 308.19 533.79 302.20 C 526.22 297.33 521.27 289.13 519.13 280.51 C 516.64 272.24 517.05 263.46 517.60 254.94 C 519.06 244.52 523.25 233.69 532.00 227.28 Z" />
<path fill="#050708" opacity="1.00" d=" M 603.95 237.09 C 609.05 228.01 618.68 221.75 629.06 220.80 C 634.77 220.44 640.76 220.28 646.13 222.59 C 656.34 226.10 663.46 235.55 666.34 245.68 C 668.73 252.70 668.22 260.21 668.29 267.50 C 651.44 267.52 634.59 267.50 617.75 267.51 C 618.09 274.54 618.94 282.47 624.56 287.44 C 629.00 291.79 635.80 292.02 641.51 290.57 C 646.62 289.16 650.22 285.08 653.85 281.48 C 658.65 284.32 663.24 287.53 668.16 290.18 C 663.51 299.23 654.00 304.96 644.17 306.75 C 634.01 308.44 622.68 308.24 613.93 302.13 C 604.30 295.64 599.50 284.14 598.07 272.96 C 596.87 260.81 597.66 247.86 603.95 237.09 M 620.96 241.97 C 618.42 245.31 618.22 249.59 617.65 253.57 C 628.38 253.88 639.12 253.78 649.84 253.62 C 649.53 248.12 648.00 242.10 643.42 238.60 C 636.66 233.37 625.75 234.76 620.96 241.97 Z" />
<path fill="#050708" opacity="1.00" d=" M 83.75 222.35 C 90.56 222.25 97.36 222.29 104.16 222.32 C 104.17 241.56 104.12 260.80 104.19 280.04 C 104.19 284.45 106.13 289.98 110.96 291.00 C 119.17 292.58 127.39 288.49 132.83 282.51 C 132.80 262.44 132.83 242.38 132.82 222.31 C 139.62 222.31 146.43 222.22 153.23 222.36 C 153.13 250.18 153.21 278.00 153.19 305.82 C 146.98 305.86 140.77 305.80 134.56 305.87 C 134.56 302.92 134.55 299.97 134.52 297.03 C 126.78 302.63 117.90 308.01 107.99 307.61 C 101.30 307.75 94.25 305.31 89.93 300.01 C 85.51 294.81 83.92 287.75 83.79 281.07 C 83.76 261.50 83.83 241.92 83.75 222.35 Z" />
<path fill="#050708" opacity="1.00" d=" M 37.63 317.90 C 40.61 318.14 43.96 317.31 46.71 318.32 C 47.64 321.07 46.89 324.32 47.09 327.26 C 43.93 327.29 40.76 327.29 37.60 327.28 C 37.59 324.15 37.59 321.03 37.63 317.90 Z" />
<path fill="#050708" opacity="1.00" d=" M 153.37 317.88 C 156.41 317.89 159.44 317.89 162.48 317.89 C 162.52 321.02 162.52 324.15 162.51 327.29 C 159.45 327.28 156.39 327.28 153.33 327.29 C 153.31 324.16 153.32 321.02 153.37 317.88 Z" />
<path fill="#050708" opacity="1.00" d=" M 129.78 321.40 C 133.01 321.28 136.25 321.27 139.48 321.28 C 139.49 325.56 139.47 329.84 139.51 334.13 C 142.12 334.12 144.72 334.12 147.32 334.11 C 147.33 336.70 147.33 339.29 147.32 341.89 C 144.71 341.87 142.11 341.86 139.51 341.85 C 139.50 349.19 139.41 356.53 139.52 363.86 C 139.42 365.10 140.55 365.84 141.19 366.76 C 143.28 366.65 145.38 366.46 147.31 365.58 C 147.31 368.24 147.33 370.89 147.36 373.55 C 142.78 374.63 137.54 375.33 133.32 372.76 C 130.62 371.24 130.29 367.81 129.88 365.08 C 129.69 357.34 129.88 349.60 129.81 341.86 C 128.08 341.87 126.35 341.88 124.62 341.90 C 124.61 339.29 124.61 336.69 124.62 334.09 C 126.33 334.11 128.04 334.12 129.76 334.15 C 129.84 329.90 129.83 325.65 129.78 321.40 Z" />
<path fill="#050708" opacity="1.00" d=" M 172.95 321.42 C 176.16 321.27 179.37 321.27 182.59 321.27 C 182.60 325.56 182.58 329.84 182.62 334.13 C 185.23 334.12 187.84 334.12 190.46 334.14 C 190.43 336.72 190.42 339.31 190.42 341.90 C 187.81 341.87 185.20 341.86 182.60 341.86 C 182.58 347.56 182.62 353.26 182.58 358.96 C 182.68 361.64 181.93 364.83 184.33 366.76 C 186.39 366.65 188.49 366.51 190.37 365.53 C 190.41 368.20 190.44 370.87 190.49 373.54 C 185.90 374.70 180.59 375.33 176.37 372.74 C 173.46 370.93 173.21 367.13 173.19 364.05 C 173.24 356.75 173.13 349.45 173.27 342.16 C 171.42 341.98 169.57 341.87 167.72 341.82 C 167.72 339.27 167.72 336.73 167.73 334.19 C 169.59 334.14 171.45 334.01 173.29 333.70 C 173.13 329.60 173.38 325.50 172.95 321.42 Z" />
<path fill="#050708" opacity="1.00" d=" M 237.46 321.27 C 240.52 321.29 243.59 321.29 246.65 321.27 C 246.64 325.56 246.63 329.84 246.66 334.13 C 249.26 334.12 251.87 334.12 254.47 334.09 C 254.48 336.69 254.48 339.29 254.48 341.90 C 251.86 341.87 249.25 341.86 246.65 341.86 C 246.62 349.41 246.69 356.95 246.60 364.49 C 247.18 365.21 247.76 365.94 248.34 366.68 C 250.43 366.68 252.54 366.52 254.43 365.55 C 254.46 368.23 254.49 370.91 254.54 373.60 C 250.09 374.61 245.05 375.28 240.88 372.96 C 238.72 371.81 237.45 369.41 237.50 367.00 C 237.36 358.62 237.51 350.24 237.45 341.87 C 235.55 341.86 233.66 341.86 231.76 341.86 C 231.77 339.28 231.77 336.70 231.78 334.12 C 233.66 334.12 235.54 334.12 237.42 334.13 C 237.47 329.84 237.45 325.55 237.46 321.27 Z" />
<path fill="#050708" opacity="1.00" d=" M 37.60 334.12 C 40.77 334.11 43.94 334.11 47.11 334.18 C 47.06 347.30 47.20 360.43 47.03 373.55 C 43.88 373.56 40.73 373.55 37.58 373.54 C 37.63 360.40 37.58 347.26 37.60 334.12 Z" />
<path fill="#050708" opacity="1.00" d=" M 55.76 334.33 C 58.80 334.08 61.84 334.08 64.89 334.12 C 64.87 335.46 64.86 336.80 64.84 338.15 C 69.83 334.34 76.51 331.96 82.63 334.48 C 87.24 336.71 88.59 342.19 88.64 346.90 C 88.69 355.78 88.60 364.66 88.68 373.55 C 85.49 373.55 82.30 373.55 79.11 373.55 C 79.15 365.01 79.11 356.48 79.14 347.95 C 79.25 345.76 78.65 343.52 77.14 341.91 C 73.05 340.25 68.59 342.22 65.51 345.00 C 65.49 354.52 65.49 364.04 65.51 373.57 C 62.27 373.57 59.03 373.56 55.79 373.47 C 55.81 360.42 55.87 347.37 55.76 334.33 Z" />
<path fill="#050708" opacity="1.00" d=" M 100.93 334.79 C 108.01 331.92 116.68 333.65 121.95 339.27 C 119.96 341.14 117.93 342.97 115.85 344.74 C 112.79 341.40 107.87 338.84 103.71 341.95 C 103.57 343.69 102.91 346.06 104.93 347.01 C 109.40 349.82 115.13 350.21 119.17 353.82 C 125.17 358.80 123.80 370.29 116.18 372.95 C 108.17 376.47 97.79 373.85 93.24 366.15 C 95.40 364.71 97.47 363.17 99.50 361.56 C 102.62 365.26 107.19 368.60 112.27 366.68 C 113.74 365.17 115.68 362.41 113.39 360.71 C 108.21 356.61 100.05 356.68 96.27 350.66 C 92.66 345.30 95.19 337.48 100.93 334.79 Z" />
<path fill="#050708" opacity="1.00" d=" M 153.33 334.09 C 156.39 334.13 159.45 334.13 162.50 334.09 C 162.54 347.25 162.50 360.41 162.53 373.57 C 159.46 373.55 156.39 373.55 153.33 373.58 C 153.33 360.41 153.32 347.25 153.33 334.09 Z" />
<path fill="#050708" opacity="1.00" d=" M 195.18 334.11 C 198.39 334.13 201.61 334.13 204.82 334.10 C 205.11 344.20 204.19 354.37 205.35 364.42 C 206.17 365.16 206.99 365.91 207.81 366.67 C 211.77 366.95 215.76 365.39 218.29 362.30 C 218.09 352.91 218.27 343.52 218.19 334.13 C 221.35 334.13 224.51 334.12 227.68 334.09 C 227.69 347.25 227.68 360.41 227.68 373.57 C 224.77 373.55 221.85 373.55 218.94 373.55 C 219.00 372.13 219.05 370.72 219.11 369.31 C 214.49 372.83 208.36 376.03 202.50 373.69 C 197.13 372.14 195.27 366.00 195.19 361.00 C 195.16 352.03 195.20 343.07 195.18 334.11 Z" />
<path fill="#050708" opacity="1.00" d=" M 264.67 335.63 C 267.97 333.39 272.17 333.32 276.02 333.61 C 281.40 333.99 285.94 338.12 287.97 342.96 C 289.87 346.78 289.50 351.17 289.58 355.31 C 281.73 355.30 273.88 355.28 266.03 355.32 C 266.26 358.85 266.40 363.14 269.79 365.25 C 273.91 368.41 279.73 365.91 282.43 362.06 C 285.00 363.17 287.38 364.67 289.80 366.08 C 283.98 375.83 267.71 377.84 260.64 368.50 C 256.46 362.98 255.82 355.68 256.64 349.01 C 257.59 343.81 259.93 338.42 264.67 335.63 M 265.95 348.75 C 270.97 348.82 275.99 348.81 281.01 348.77 C 280.65 344.90 278.27 340.80 274.04 340.47 C 269.38 339.99 265.76 344.28 265.95 348.75 Z" />
</g>
</svg>
